<mxfile host="Electron" modified="2024-01-21T22:06:32.740Z" agent="Mozilla/5.0 (Windows NT 10.0; Win64; x64) AppleWebKit/537.36 (KHTML, like Gecko) draw.io/22.1.21 Chrome/120.0.6099.109 Electron/28.1.0 Safari/537.36" etag="0d28l9KRXNfRP9vefd9q" version="22.1.21" type="device" pages="4">
  <diagram id="uhVenVMci_FB2ow91k_3" name="Constant">
    <mxGraphModel dx="2908" dy="98" grid="1" gridSize="10" guides="1" tooltips="1" connect="1" arrows="1" fold="1" page="1" pageScale="1" pageWidth="850" pageHeight="1100" math="0" shadow="0">
      <root>
        <mxCell id="0" />
        <mxCell id="1" parent="0" />
        <mxCell id="eDFqYpG94ULhrg9yy8LH-1" value="" style="edgeStyle=orthogonalEdgeStyle;rounded=0;orthogonalLoop=1;jettySize=auto;html=1;" parent="1" source="eDFqYpG94ULhrg9yy8LH-2" target="eDFqYpG94ULhrg9yy8LH-5" edge="1">
          <mxGeometry relative="1" as="geometry" />
        </mxCell>
        <mxCell id="eDFqYpG94ULhrg9yy8LH-2" value="qBittorrent API" style="ellipse;shape=cloud;whiteSpace=wrap;html=1;fillColor=#e51400;fontColor=#ffffff;strokeColor=#B20000;" parent="1" vertex="1">
          <mxGeometry x="-642" y="1204" width="120" height="80" as="geometry" />
        </mxCell>
        <mxCell id="eDFqYpG94ULhrg9yy8LH-3" value="" style="edgeStyle=orthogonalEdgeStyle;rounded=0;orthogonalLoop=1;jettySize=auto;html=1;" parent="1" source="eDFqYpG94ULhrg9yy8LH-5" target="eDFqYpG94ULhrg9yy8LH-8" edge="1">
          <mxGeometry relative="1" as="geometry" />
        </mxCell>
        <mxCell id="eDFqYpG94ULhrg9yy8LH-4" value="" style="edgeStyle=orthogonalEdgeStyle;rounded=0;orthogonalLoop=1;jettySize=auto;html=1;" parent="1" source="eDFqYpG94ULhrg9yy8LH-5" target="eDFqYpG94ULhrg9yy8LH-8" edge="1">
          <mxGeometry relative="1" as="geometry" />
        </mxCell>
        <mxCell id="eDFqYpG94ULhrg9yy8LH-5" value="Chk downloads status" style="whiteSpace=wrap;html=1;" parent="1" vertex="1">
          <mxGeometry x="-461" y="1214" width="120" height="60" as="geometry" />
        </mxCell>
        <mxCell id="eDFqYpG94ULhrg9yy8LH-6" value="Yes" style="edgeStyle=orthogonalEdgeStyle;rounded=0;orthogonalLoop=1;jettySize=auto;html=1;" parent="1" source="eDFqYpG94ULhrg9yy8LH-8" target="eDFqYpG94ULhrg9yy8LH-11" edge="1">
          <mxGeometry relative="1" as="geometry" />
        </mxCell>
        <mxCell id="eDFqYpG94ULhrg9yy8LH-7" value="No" style="edgeStyle=orthogonalEdgeStyle;rounded=0;orthogonalLoop=1;jettySize=auto;html=1;exitX=0.5;exitY=1;exitDx=0;exitDy=0;entryX=0.5;entryY=0;entryDx=0;entryDy=0;" parent="1" source="eDFqYpG94ULhrg9yy8LH-8" target="eDFqYpG94ULhrg9yy8LH-13" edge="1">
          <mxGeometry x="-0.3939" y="11" relative="1" as="geometry">
            <mxPoint as="offset" />
          </mxGeometry>
        </mxCell>
        <mxCell id="eDFqYpG94ULhrg9yy8LH-8" value="Still downloading?" style="rhombus;whiteSpace=wrap;html=1;" parent="1" vertex="1">
          <mxGeometry x="-257" y="1188" width="112" height="112" as="geometry" />
        </mxCell>
        <mxCell id="eDFqYpG94ULhrg9yy8LH-9" value="Yes" style="edgeStyle=orthogonalEdgeStyle;rounded=0;orthogonalLoop=1;jettySize=auto;html=1;exitX=0.5;exitY=1;exitDx=0;exitDy=0;" parent="1" source="eDFqYpG94ULhrg9yy8LH-11" target="eDFqYpG94ULhrg9yy8LH-36" edge="1">
          <mxGeometry x="-0.1838" y="17" relative="1" as="geometry">
            <mxPoint as="offset" />
          </mxGeometry>
        </mxCell>
        <mxCell id="eDFqYpG94ULhrg9yy8LH-10" value="No" style="edgeStyle=orthogonalEdgeStyle;rounded=0;orthogonalLoop=1;jettySize=auto;html=1;" parent="1" source="eDFqYpG94ULhrg9yy8LH-11" target="eDFqYpG94ULhrg9yy8LH-39" edge="1">
          <mxGeometry relative="1" as="geometry">
            <Array as="points">
              <mxPoint x="24" y="1244" />
              <mxPoint x="24" y="1244" />
            </Array>
          </mxGeometry>
        </mxCell>
        <mxCell id="eDFqYpG94ULhrg9yy8LH-11" value="Slow?" style="rhombus;whiteSpace=wrap;html=1;" parent="1" vertex="1">
          <mxGeometry x="-81" y="1204" width="80" height="80" as="geometry" />
        </mxCell>
        <mxCell id="eDFqYpG94ULhrg9yy8LH-12" value="&amp;lt; 16" style="edgeStyle=orthogonalEdgeStyle;rounded=0;orthogonalLoop=1;jettySize=auto;html=1;" parent="1" target="eDFqYpG94ULhrg9yy8LH-15" edge="1">
          <mxGeometry x="0.4651" y="15" relative="1" as="geometry">
            <Array as="points">
              <mxPoint x="-201" y="1362" />
              <mxPoint x="-201" y="1362" />
            </Array>
            <mxPoint as="offset" />
            <mxPoint x="-201" y="1355" as="sourcePoint" />
          </mxGeometry>
        </mxCell>
        <mxCell id="eDFqYpG94ULhrg9yy8LH-13" value="How many queued?" style="rhombus;whiteSpace=wrap;html=1;" parent="1" vertex="1">
          <mxGeometry x="-241" y="1333" width="80" height="80" as="geometry" />
        </mxCell>
        <mxCell id="eDFqYpG94ULhrg9yy8LH-14" value="" style="edgeStyle=orthogonalEdgeStyle;rounded=0;orthogonalLoop=1;jettySize=auto;html=1;" parent="1" source="eDFqYpG94ULhrg9yy8LH-15" target="eDFqYpG94ULhrg9yy8LH-20" edge="1">
          <mxGeometry relative="1" as="geometry" />
        </mxCell>
        <mxCell id="eDFqYpG94ULhrg9yy8LH-15" value="Check queue searches" style="whiteSpace=wrap;html=1;" parent="1" vertex="1">
          <mxGeometry x="-260" y="1441" width="120" height="60" as="geometry" />
        </mxCell>
        <mxCell id="eDFqYpG94ULhrg9yy8LH-16" style="edgeStyle=orthogonalEdgeStyle;rounded=0;orthogonalLoop=1;jettySize=auto;html=1;entryX=0;entryY=0.5;entryDx=0;entryDy=0;" parent="1" source="eDFqYpG94ULhrg9yy8LH-17" target="eDFqYpG94ULhrg9yy8LH-15" edge="1">
          <mxGeometry relative="1" as="geometry" />
        </mxCell>
        <mxCell id="eDFqYpG94ULhrg9yy8LH-17" value="search_for_queue" style="shape=process;whiteSpace=wrap;html=1;backgroundOutline=1;" parent="1" vertex="1">
          <mxGeometry x="-631" y="1441" width="180" height="60" as="geometry" />
        </mxCell>
        <mxCell id="eDFqYpG94ULhrg9yy8LH-18" style="edgeStyle=orthogonalEdgeStyle;rounded=0;orthogonalLoop=1;jettySize=auto;html=1;exitX=0.5;exitY=1;exitDx=0;exitDy=0;entryX=0.5;entryY=0;entryDx=0;entryDy=0;" parent="1" source="eDFqYpG94ULhrg9yy8LH-20" target="eDFqYpG94ULhrg9yy8LH-22" edge="1">
          <mxGeometry relative="1" as="geometry" />
        </mxCell>
        <mxCell id="eDFqYpG94ULhrg9yy8LH-19" style="edgeStyle=orthogonalEdgeStyle;rounded=0;orthogonalLoop=1;jettySize=auto;html=1;entryX=1;entryY=0.5;entryDx=0;entryDy=0;" parent="1" source="eDFqYpG94ULhrg9yy8LH-20" target="eDFqYpG94ULhrg9yy8LH-26" edge="1">
          <mxGeometry relative="1" as="geometry" />
        </mxCell>
        <mxCell id="eDFqYpG94ULhrg9yy8LH-20" value="Search Google for archive.org" style="whiteSpace=wrap;html=1;" parent="1" vertex="1">
          <mxGeometry x="-260" y="1543" width="120" height="60" as="geometry" />
        </mxCell>
        <mxCell id="eDFqYpG94ULhrg9yy8LH-21" value="" style="edgeStyle=orthogonalEdgeStyle;rounded=0;orthogonalLoop=1;jettySize=auto;html=1;" parent="1" source="eDFqYpG94ULhrg9yy8LH-22" target="eDFqYpG94ULhrg9yy8LH-26" edge="1">
          <mxGeometry relative="1" as="geometry" />
        </mxCell>
        <mxCell id="eDFqYpG94ULhrg9yy8LH-22" value="Search pirate bay for different names" style="whiteSpace=wrap;html=1;" parent="1" vertex="1">
          <mxGeometry x="-260" y="1640" width="120" height="60" as="geometry" />
        </mxCell>
        <mxCell id="eDFqYpG94ULhrg9yy8LH-23" value="Add movies&lt;br&gt;to queue" style="edgeStyle=orthogonalEdgeStyle;rounded=0;orthogonalLoop=1;jettySize=auto;html=1;" parent="1" source="eDFqYpG94ULhrg9yy8LH-24" target="eDFqYpG94ULhrg9yy8LH-17" edge="1">
          <mxGeometry x="-1" y="50" relative="1" as="geometry">
            <mxPoint x="-5" y="-21" as="offset" />
          </mxGeometry>
        </mxCell>
        <mxCell id="eDFqYpG94ULhrg9yy8LH-24" value="Me" style="shape=umlActor;verticalLabelPosition=bottom;verticalAlign=top;html=1;outlineConnect=0;" parent="1" vertex="1">
          <mxGeometry x="-556" y="1339" width="30" height="60" as="geometry" />
        </mxCell>
        <mxCell id="eDFqYpG94ULhrg9yy8LH-25" value="Yes" style="edgeStyle=orthogonalEdgeStyle;rounded=0;orthogonalLoop=1;jettySize=auto;html=1;" parent="1" source="eDFqYpG94ULhrg9yy8LH-26" target="eDFqYpG94ULhrg9yy8LH-28" edge="1">
          <mxGeometry x="-0.2308" y="-13" relative="1" as="geometry">
            <mxPoint as="offset" />
          </mxGeometry>
        </mxCell>
        <mxCell id="eDFqYpG94ULhrg9yy8LH-26" value="Found?" style="rhombus;whiteSpace=wrap;html=1;" parent="1" vertex="1">
          <mxGeometry x="-406" y="1581" width="80" height="80" as="geometry" />
        </mxCell>
        <mxCell id="eDFqYpG94ULhrg9yy8LH-27" value="Enough" style="edgeStyle=orthogonalEdgeStyle;rounded=0;orthogonalLoop=1;jettySize=auto;html=1;" parent="1" source="eDFqYpG94ULhrg9yy8LH-28" edge="1">
          <mxGeometry x="-0.1046" y="-13" relative="1" as="geometry">
            <mxPoint x="-600" y="1621" as="targetPoint" />
            <mxPoint as="offset" />
          </mxGeometry>
        </mxCell>
        <mxCell id="eDFqYpG94ULhrg9yy8LH-28" value="Seeders?" style="rhombus;whiteSpace=wrap;html=1;" parent="1" vertex="1">
          <mxGeometry x="-538" y="1581" width="80" height="80" as="geometry" />
        </mxCell>
        <mxCell id="eDFqYpG94ULhrg9yy8LH-29" value="Yes" style="edgeStyle=orthogonalEdgeStyle;rounded=0;orthogonalLoop=1;jettySize=auto;html=1;exitX=0;exitY=0.5;exitDx=0;exitDy=0;" parent="1" source="eDFqYpG94ULhrg9yy8LH-30" target="eDFqYpG94ULhrg9yy8LH-31" edge="1">
          <mxGeometry relative="1" as="geometry" />
        </mxCell>
        <mxCell id="eDFqYpG94ULhrg9yy8LH-30" value="Availability = 1?" style="rhombus;whiteSpace=wrap;html=1;" parent="1" vertex="1">
          <mxGeometry x="-710" y="1560" width="116" height="116" as="geometry" />
        </mxCell>
        <mxCell id="eDFqYpG94ULhrg9yy8LH-31" value="Add to bittorrent Downloading List" style="whiteSpace=wrap;html=1;" parent="1" vertex="1">
          <mxGeometry x="-790" y="1213" width="120" height="60" as="geometry" />
        </mxCell>
        <mxCell id="eDFqYpG94ULhrg9yy8LH-32" style="edgeStyle=orthogonalEdgeStyle;rounded=0;orthogonalLoop=1;jettySize=auto;html=1;entryX=0.068;entryY=0.483;entryDx=0;entryDy=0;entryPerimeter=0;" parent="1" source="eDFqYpG94ULhrg9yy8LH-31" target="eDFqYpG94ULhrg9yy8LH-2" edge="1">
          <mxGeometry relative="1" as="geometry" />
        </mxCell>
        <mxCell id="eDFqYpG94ULhrg9yy8LH-33" value="16+: Wait and Check" style="edgeStyle=orthogonalEdgeStyle;rounded=0;orthogonalLoop=1;jettySize=auto;html=1;entryX=0.458;entryY=1.067;entryDx=0;entryDy=0;entryPerimeter=0;" parent="1" source="eDFqYpG94ULhrg9yy8LH-13" target="eDFqYpG94ULhrg9yy8LH-5" edge="1">
          <mxGeometry x="-0.1922" y="-15" relative="1" as="geometry">
            <mxPoint as="offset" />
          </mxGeometry>
        </mxCell>
        <mxCell id="eDFqYpG94ULhrg9yy8LH-34" value="Yes" style="edgeStyle=orthogonalEdgeStyle;rounded=0;orthogonalLoop=1;jettySize=auto;html=1;exitX=0;exitY=0.5;exitDx=0;exitDy=0;entryX=1;entryY=0.5;entryDx=0;entryDy=0;" parent="1" source="eDFqYpG94ULhrg9yy8LH-36" target="eDFqYpG94ULhrg9yy8LH-13" edge="1">
          <mxGeometry x="-0.7959" y="-16" relative="1" as="geometry">
            <mxPoint as="offset" />
          </mxGeometry>
        </mxCell>
        <mxCell id="eDFqYpG94ULhrg9yy8LH-35" style="edgeStyle=orthogonalEdgeStyle;rounded=0;orthogonalLoop=1;jettySize=auto;html=1;entryX=0.5;entryY=0;entryDx=0;entryDy=0;" parent="1" source="eDFqYpG94ULhrg9yy8LH-36" target="eDFqYpG94ULhrg9yy8LH-45" edge="1">
          <mxGeometry relative="1" as="geometry" />
        </mxCell>
        <mxCell id="eDFqYpG94ULhrg9yy8LH-36" value="Correct Pace?" style="rhombus;whiteSpace=wrap;html=1;" parent="1" vertex="1">
          <mxGeometry x="-24" y="1330.5" width="90" height="87" as="geometry" />
        </mxCell>
        <mxCell id="eDFqYpG94ULhrg9yy8LH-37" value="Yes" style="edgeStyle=orthogonalEdgeStyle;rounded=0;orthogonalLoop=1;jettySize=auto;html=1;entryX=0.5;entryY=0;entryDx=0;entryDy=0;" parent="1" source="eDFqYpG94ULhrg9yy8LH-39" target="eDFqYpG94ULhrg9yy8LH-36" edge="1">
          <mxGeometry x="-0.8898" y="16" relative="1" as="geometry">
            <mxPoint as="offset" />
          </mxGeometry>
        </mxCell>
        <mxCell id="eDFqYpG94ULhrg9yy8LH-38" value="No" style="edgeStyle=orthogonalEdgeStyle;rounded=0;orthogonalLoop=1;jettySize=auto;html=1;" parent="1" source="eDFqYpG94ULhrg9yy8LH-39" target="eDFqYpG94ULhrg9yy8LH-42" edge="1">
          <mxGeometry relative="1" as="geometry" />
        </mxCell>
        <mxCell id="eDFqYpG94ULhrg9yy8LH-39" value="Huge?" style="rhombus;whiteSpace=wrap;html=1;" parent="1" vertex="1">
          <mxGeometry x="44" y="1204" width="80" height="80" as="geometry" />
        </mxCell>
        <mxCell id="eDFqYpG94ULhrg9yy8LH-40" value="No" style="edgeStyle=orthogonalEdgeStyle;rounded=0;orthogonalLoop=1;jettySize=auto;html=1;entryX=0.5;entryY=0;entryDx=0;entryDy=0;exitX=0.5;exitY=1;exitDx=0;exitDy=0;" parent="1" source="eDFqYpG94ULhrg9yy8LH-42" target="eDFqYpG94ULhrg9yy8LH-45" edge="1">
          <mxGeometry x="-0.9195" y="10" relative="1" as="geometry">
            <Array as="points">
              <mxPoint x="204" y="1284" />
              <mxPoint x="204" y="1438" />
              <mxPoint x="21" y="1438" />
            </Array>
            <mxPoint as="offset" />
          </mxGeometry>
        </mxCell>
        <mxCell id="eDFqYpG94ULhrg9yy8LH-41" value="Yes" style="edgeStyle=orthogonalEdgeStyle;rounded=0;orthogonalLoop=1;jettySize=auto;html=1;" parent="1" source="eDFqYpG94ULhrg9yy8LH-42" target="eDFqYpG94ULhrg9yy8LH-48" edge="1">
          <mxGeometry relative="1" as="geometry" />
        </mxCell>
        <mxCell id="eDFqYpG94ULhrg9yy8LH-42" value="100% Available?" style="rhombus;whiteSpace=wrap;html=1;" parent="1" vertex="1">
          <mxGeometry x="163" y="1204" width="80" height="80" as="geometry" />
        </mxCell>
        <mxCell id="eDFqYpG94ULhrg9yy8LH-43" value="No" style="edgeStyle=orthogonalEdgeStyle;rounded=0;orthogonalLoop=1;jettySize=auto;html=1;entryX=1;entryY=0.5;entryDx=0;entryDy=0;" parent="1" source="eDFqYpG94ULhrg9yy8LH-45" target="eDFqYpG94ULhrg9yy8LH-13" edge="1">
          <mxGeometry x="-0.9102" y="-9" relative="1" as="geometry">
            <Array as="points">
              <mxPoint x="-96" y="1507" />
              <mxPoint x="-96" y="1373" />
            </Array>
            <mxPoint as="offset" />
          </mxGeometry>
        </mxCell>
        <mxCell id="eDFqYpG94ULhrg9yy8LH-44" value="Yes" style="edgeStyle=orthogonalEdgeStyle;rounded=0;orthogonalLoop=1;jettySize=auto;html=1;" parent="1" source="eDFqYpG94ULhrg9yy8LH-45" target="eDFqYpG94ULhrg9yy8LH-52" edge="1">
          <mxGeometry x="-0.1429" y="15" relative="1" as="geometry">
            <mxPoint as="offset" />
          </mxGeometry>
        </mxCell>
        <mxCell id="eDFqYpG94ULhrg9yy8LH-45" value="Cancel?" style="rhombus;whiteSpace=wrap;html=1;" parent="1" vertex="1">
          <mxGeometry x="-19" y="1467" width="80" height="80" as="geometry" />
        </mxCell>
        <mxCell id="eDFqYpG94ULhrg9yy8LH-46" value="Yes" style="edgeStyle=orthogonalEdgeStyle;rounded=0;orthogonalLoop=1;jettySize=auto;html=1;exitX=0.5;exitY=1;exitDx=0;exitDy=0;entryX=0.5;entryY=0;entryDx=0;entryDy=0;" parent="1" source="eDFqYpG94ULhrg9yy8LH-48" target="eDFqYpG94ULhrg9yy8LH-45" edge="1">
          <mxGeometry x="-0.9449" y="10" relative="1" as="geometry">
            <Array as="points">
              <mxPoint x="334" y="1284" />
              <mxPoint x="334" y="1438" />
              <mxPoint x="21" y="1438" />
            </Array>
            <mxPoint as="offset" />
          </mxGeometry>
        </mxCell>
        <mxCell id="eDFqYpG94ULhrg9yy8LH-47" value="No" style="edgeStyle=orthogonalEdgeStyle;rounded=0;orthogonalLoop=1;jettySize=auto;html=1;" parent="1" source="eDFqYpG94ULhrg9yy8LH-48" target="eDFqYpG94ULhrg9yy8LH-50" edge="1">
          <mxGeometry relative="1" as="geometry" />
        </mxCell>
        <mxCell id="eDFqYpG94ULhrg9yy8LH-48" value="Stalled?" style="rhombus;whiteSpace=wrap;html=1;" parent="1" vertex="1">
          <mxGeometry x="295" y="1204" width="80" height="80" as="geometry" />
        </mxCell>
        <mxCell id="eDFqYpG94ULhrg9yy8LH-49" value="No" style="edgeStyle=orthogonalEdgeStyle;rounded=0;orthogonalLoop=1;jettySize=auto;html=1;entryX=0.5;entryY=0;entryDx=0;entryDy=0;exitX=0.5;exitY=1;exitDx=0;exitDy=0;" parent="1" source="eDFqYpG94ULhrg9yy8LH-50" target="eDFqYpG94ULhrg9yy8LH-45" edge="1">
          <mxGeometry x="-0.9581" y="10" relative="1" as="geometry">
            <Array as="points">
              <mxPoint x="444" y="1284" />
              <mxPoint x="444" y="1438" />
              <mxPoint x="21" y="1438" />
            </Array>
            <mxPoint as="offset" />
          </mxGeometry>
        </mxCell>
        <mxCell id="eDFqYpG94ULhrg9yy8LH-53" value="Wait &amp;amp; Check" style="edgeStyle=orthogonalEdgeStyle;rounded=0;orthogonalLoop=1;jettySize=auto;html=1;entryX=0.5;entryY=0;entryDx=0;entryDy=0;" parent="1" source="eDFqYpG94ULhrg9yy8LH-50" target="eDFqYpG94ULhrg9yy8LH-5" edge="1">
          <mxGeometry relative="1" as="geometry">
            <Array as="points">
              <mxPoint x="540" y="1244" />
              <mxPoint x="540" y="1118" />
              <mxPoint x="-401" y="1118" />
            </Array>
          </mxGeometry>
        </mxCell>
        <mxCell id="eDFqYpG94ULhrg9yy8LH-50" value="Metadata?" style="rhombus;whiteSpace=wrap;html=1;" parent="1" vertex="1">
          <mxGeometry x="410" y="1204" width="80" height="80" as="geometry" />
        </mxCell>
        <mxCell id="eDFqYpG94ULhrg9yy8LH-51" value="Complete" style="edgeStyle=orthogonalEdgeStyle;rounded=0;orthogonalLoop=1;jettySize=auto;html=1;entryX=1;entryY=0.5;entryDx=0;entryDy=0;" parent="1" source="eDFqYpG94ULhrg9yy8LH-52" target="eDFqYpG94ULhrg9yy8LH-13" edge="1">
          <mxGeometry x="-0.8078" y="-18" relative="1" as="geometry">
            <Array as="points">
              <mxPoint x="-96" y="1636" />
              <mxPoint x="-96" y="1373" />
            </Array>
            <mxPoint as="offset" />
          </mxGeometry>
        </mxCell>
        <mxCell id="eDFqYpG94ULhrg9yy8LH-52" value="qBittorrent API" style="ellipse;shape=cloud;whiteSpace=wrap;html=1;fillColor=#e51400;fontColor=#ffffff;strokeColor=#B20000;" parent="1" vertex="1">
          <mxGeometry x="-39" y="1596" width="120" height="80" as="geometry" />
        </mxCell>
        <mxCell id="B7uo0CuU4lD2z9pDH8Ii-1" value="FilmCab - Infinite Loop" style="text;align=center;fontStyle=1;verticalAlign=middle;spacingLeft=3;spacingRight=3;strokeColor=none;rotatable=0;points=[[0,0.5],[1,0.5]];portConstraint=eastwest;html=1;fontSize=26;" parent="1" vertex="1">
          <mxGeometry x="-618" y="1122" width="80" height="26" as="geometry" />
        </mxCell>
      </root>
    </mxGraphModel>
  </diagram>
  <diagram id="vQOAEvg_pV3OeTKu6UQo" name="Early Morning">
    <mxGraphModel dx="2496" dy="958" grid="1" gridSize="10" guides="1" tooltips="1" connect="1" arrows="1" fold="1" page="1" pageScale="1" pageWidth="850" pageHeight="1100" math="0" shadow="0">
      <root>
        <mxCell id="0" />
        <mxCell id="1" parent="0" />
        <mxCell id="uHgzk90Tl9gLxocm4gXn-63" value="Yes" style="edgeStyle=orthogonalEdgeStyle;rounded=0;orthogonalLoop=1;jettySize=auto;html=1;" parent="1" source="pRlnWTaC3h9rh6URU6XM-1" target="pRlnWTaC3h9rh6URU6XM-2" edge="1">
          <mxGeometry x="-0.2766" y="11" relative="1" as="geometry">
            <mxPoint as="offset" />
          </mxGeometry>
        </mxCell>
        <mxCell id="uHgzk90Tl9gLxocm4gXn-66" value="No" style="edgeStyle=orthogonalEdgeStyle;rounded=0;orthogonalLoop=1;jettySize=auto;html=1;entryX=0.5;entryY=0;entryDx=0;entryDy=0;" parent="1" source="pRlnWTaC3h9rh6URU6XM-1" target="2JJx2ER6VihFAEzLnYSj-1" edge="1">
          <mxGeometry x="-0.8882" y="16" relative="1" as="geometry">
            <mxPoint as="offset" />
            <mxPoint x="-375" y="270" as="targetPoint" />
            <Array as="points">
              <mxPoint x="-466" y="210" />
              <mxPoint x="-374" y="210" />
              <mxPoint x="-374" y="270" />
              <mxPoint x="-375" y="270" />
            </Array>
          </mxGeometry>
        </mxCell>
        <mxCell id="pRlnWTaC3h9rh6URU6XM-1" value="Late night still running?" style="rhombus;whiteSpace=wrap;html=1;" parent="1" vertex="1">
          <mxGeometry x="-526" y="51" width="120" height="100" as="geometry" />
        </mxCell>
        <mxCell id="uHgzk90Tl9gLxocm4gXn-67" value="No" style="edgeStyle=orthogonalEdgeStyle;rounded=0;orthogonalLoop=1;jettySize=auto;html=1;exitX=0.5;exitY=1;exitDx=0;exitDy=0;entryX=0.5;entryY=0;entryDx=0;entryDy=0;" parent="1" source="pRlnWTaC3h9rh6URU6XM-2" target="2JJx2ER6VihFAEzLnYSj-1" edge="1">
          <mxGeometry x="-0.831" y="19" relative="1" as="geometry">
            <mxPoint as="offset" />
            <mxPoint x="-320" y="260" as="targetPoint" />
            <Array as="points">
              <mxPoint x="-299" y="210" />
              <mxPoint x="-375" y="210" />
            </Array>
          </mxGeometry>
        </mxCell>
        <mxCell id="pRlnWTaC3h9rh6URU6XM-2" value="Should I wait?" style="rhombus;whiteSpace=wrap;html=1;" parent="1" vertex="1">
          <mxGeometry x="-359" y="51" width="120" height="100" as="geometry" />
        </mxCell>
        <mxCell id="pRlnWTaC3h9rh6URU6XM-12" value="UPSERT" style="edgeStyle=orthogonalEdgeStyle;rounded=0;orthogonalLoop=1;jettySize=auto;html=1;" parent="1" source="pRlnWTaC3h9rh6URU6XM-5" target="pRlnWTaC3h9rh6URU6XM-11" edge="1">
          <mxGeometry relative="1" as="geometry" />
        </mxCell>
        <mxCell id="uHgzk90Tl9gLxocm4gXn-13" value="" style="edgeStyle=orthogonalEdgeStyle;rounded=0;orthogonalLoop=1;jettySize=auto;html=1;" parent="1" source="pRlnWTaC3h9rh6URU6XM-5" target="cvWSxfz68PwSCFuVgJ0R-3" edge="1">
          <mxGeometry relative="1" as="geometry" />
        </mxCell>
        <mxCell id="pRlnWTaC3h9rh6URU6XM-5" value="Scan new directories for new files" style="whiteSpace=wrap;html=1;" parent="1" vertex="1">
          <mxGeometry x="-440" y="494" width="130" height="60" as="geometry" />
        </mxCell>
        <mxCell id="pRlnWTaC3h9rh6URU6XM-29" value="REPLACE" style="edgeStyle=orthogonalEdgeStyle;rounded=0;orthogonalLoop=1;jettySize=auto;html=1;entryX=0;entryY=0.5;entryDx=0;entryDy=0;" parent="1" source="pRlnWTaC3h9rh6URU6XM-9" edge="1">
          <mxGeometry x="0.0099" relative="1" as="geometry">
            <mxPoint as="offset" />
            <mxPoint x="-217" y="710" as="targetPoint" />
          </mxGeometry>
        </mxCell>
        <mxCell id="cvWSxfz68PwSCFuVgJ0R-87" value="" style="edgeStyle=orthogonalEdgeStyle;rounded=0;orthogonalLoop=1;jettySize=auto;html=1;" parent="1" source="pRlnWTaC3h9rh6URU6XM-9" target="1Dfc4w6XBSOZAnMc_fKf-44" edge="1">
          <mxGeometry relative="1" as="geometry" />
        </mxCell>
        <mxCell id="pRlnWTaC3h9rh6URU6XM-9" value="Import Excel List" style="whiteSpace=wrap;html=1;" parent="1" vertex="1">
          <mxGeometry x="-440" y="680" width="130" height="60" as="geometry" />
        </mxCell>
        <mxCell id="pRlnWTaC3h9rh6URU6XM-11" value="files" style="shape=process;whiteSpace=wrap;html=1;backgroundOutline=1;fillColor=#f8cecc;strokeColor=#b85450;gradientColor=#ea6b66;" parent="1" vertex="1">
          <mxGeometry x="-219" y="494" width="184" height="60" as="geometry" />
        </mxCell>
        <mxCell id="pRlnWTaC3h9rh6URU6XM-27" style="edgeStyle=orthogonalEdgeStyle;rounded=0;orthogonalLoop=1;jettySize=auto;html=1;entryX=0;entryY=0.5;entryDx=0;entryDy=0;" parent="1" source="pRlnWTaC3h9rh6URU6XM-13" target="pRlnWTaC3h9rh6URU6XM-9" edge="1">
          <mxGeometry relative="1" as="geometry" />
        </mxCell>
        <mxCell id="pRlnWTaC3h9rh6URU6XM-13" value="user_excel_interface.xlsm" style="shape=table;startSize=30;container=1;collapsible=0;childLayout=tableLayout;strokeColor=default;fontSize=16;" parent="1" vertex="1">
          <mxGeometry x="-680" y="680" width="183" height="60" as="geometry" />
        </mxCell>
        <mxCell id="pRlnWTaC3h9rh6URU6XM-14" value="" style="shape=tableRow;horizontal=0;startSize=0;swimlaneHead=0;swimlaneBody=0;strokeColor=inherit;top=0;left=0;bottom=0;right=0;collapsible=0;dropTarget=0;fillColor=none;points=[[0,0.5],[1,0.5]];portConstraint=eastwest;fontSize=16;" parent="pRlnWTaC3h9rh6URU6XM-13" vertex="1">
          <mxGeometry y="30" width="183" height="10" as="geometry" />
        </mxCell>
        <mxCell id="pRlnWTaC3h9rh6URU6XM-15" value="" style="shape=partialRectangle;html=1;whiteSpace=wrap;connectable=0;strokeColor=inherit;overflow=hidden;fillColor=none;top=0;left=0;bottom=0;right=0;pointerEvents=1;fontSize=16;" parent="pRlnWTaC3h9rh6URU6XM-14" vertex="1">
          <mxGeometry width="61" height="10" as="geometry">
            <mxRectangle width="61" height="10" as="alternateBounds" />
          </mxGeometry>
        </mxCell>
        <mxCell id="pRlnWTaC3h9rh6URU6XM-16" value="" style="shape=partialRectangle;html=1;whiteSpace=wrap;connectable=0;strokeColor=inherit;overflow=hidden;fillColor=none;top=0;left=0;bottom=0;right=0;pointerEvents=1;fontSize=16;" parent="pRlnWTaC3h9rh6URU6XM-14" vertex="1">
          <mxGeometry x="61" width="61" height="10" as="geometry">
            <mxRectangle width="61" height="10" as="alternateBounds" />
          </mxGeometry>
        </mxCell>
        <mxCell id="pRlnWTaC3h9rh6URU6XM-17" value="" style="shape=partialRectangle;html=1;whiteSpace=wrap;connectable=0;strokeColor=inherit;overflow=hidden;fillColor=none;top=0;left=0;bottom=0;right=0;pointerEvents=1;fontSize=16;" parent="pRlnWTaC3h9rh6URU6XM-14" vertex="1">
          <mxGeometry x="122" width="61" height="10" as="geometry">
            <mxRectangle width="61" height="10" as="alternateBounds" />
          </mxGeometry>
        </mxCell>
        <mxCell id="pRlnWTaC3h9rh6URU6XM-18" value="" style="shape=tableRow;horizontal=0;startSize=0;swimlaneHead=0;swimlaneBody=0;strokeColor=inherit;top=0;left=0;bottom=0;right=0;collapsible=0;dropTarget=0;fillColor=none;points=[[0,0.5],[1,0.5]];portConstraint=eastwest;fontSize=16;" parent="pRlnWTaC3h9rh6URU6XM-13" vertex="1">
          <mxGeometry y="40" width="183" height="10" as="geometry" />
        </mxCell>
        <mxCell id="pRlnWTaC3h9rh6URU6XM-19" value="" style="shape=partialRectangle;html=1;whiteSpace=wrap;connectable=0;strokeColor=inherit;overflow=hidden;fillColor=none;top=0;left=0;bottom=0;right=0;pointerEvents=1;fontSize=16;" parent="pRlnWTaC3h9rh6URU6XM-18" vertex="1">
          <mxGeometry width="61" height="10" as="geometry">
            <mxRectangle width="61" height="10" as="alternateBounds" />
          </mxGeometry>
        </mxCell>
        <mxCell id="pRlnWTaC3h9rh6URU6XM-20" value="" style="shape=partialRectangle;html=1;whiteSpace=wrap;connectable=0;strokeColor=inherit;overflow=hidden;fillColor=none;top=0;left=0;bottom=0;right=0;pointerEvents=1;fontSize=16;" parent="pRlnWTaC3h9rh6URU6XM-18" vertex="1">
          <mxGeometry x="61" width="61" height="10" as="geometry">
            <mxRectangle width="61" height="10" as="alternateBounds" />
          </mxGeometry>
        </mxCell>
        <mxCell id="pRlnWTaC3h9rh6URU6XM-21" value="" style="shape=partialRectangle;html=1;whiteSpace=wrap;connectable=0;strokeColor=inherit;overflow=hidden;fillColor=none;top=0;left=0;bottom=0;right=0;pointerEvents=1;fontSize=16;" parent="pRlnWTaC3h9rh6URU6XM-18" vertex="1">
          <mxGeometry x="122" width="61" height="10" as="geometry">
            <mxRectangle width="61" height="10" as="alternateBounds" />
          </mxGeometry>
        </mxCell>
        <mxCell id="pRlnWTaC3h9rh6URU6XM-22" value="" style="shape=tableRow;horizontal=0;startSize=0;swimlaneHead=0;swimlaneBody=0;strokeColor=inherit;top=0;left=0;bottom=0;right=0;collapsible=0;dropTarget=0;fillColor=none;points=[[0,0.5],[1,0.5]];portConstraint=eastwest;fontSize=16;" parent="pRlnWTaC3h9rh6URU6XM-13" vertex="1">
          <mxGeometry y="50" width="183" height="10" as="geometry" />
        </mxCell>
        <mxCell id="pRlnWTaC3h9rh6URU6XM-23" value="" style="shape=partialRectangle;html=1;whiteSpace=wrap;connectable=0;strokeColor=inherit;overflow=hidden;fillColor=none;top=0;left=0;bottom=0;right=0;pointerEvents=1;fontSize=16;" parent="pRlnWTaC3h9rh6URU6XM-22" vertex="1">
          <mxGeometry width="61" height="10" as="geometry">
            <mxRectangle width="61" height="10" as="alternateBounds" />
          </mxGeometry>
        </mxCell>
        <mxCell id="pRlnWTaC3h9rh6URU6XM-24" value="" style="shape=partialRectangle;html=1;whiteSpace=wrap;connectable=0;strokeColor=inherit;overflow=hidden;fillColor=none;top=0;left=0;bottom=0;right=0;pointerEvents=1;fontSize=16;" parent="pRlnWTaC3h9rh6URU6XM-22" vertex="1">
          <mxGeometry x="61" width="61" height="10" as="geometry">
            <mxRectangle width="61" height="10" as="alternateBounds" />
          </mxGeometry>
        </mxCell>
        <mxCell id="pRlnWTaC3h9rh6URU6XM-25" value="" style="shape=partialRectangle;html=1;whiteSpace=wrap;connectable=0;strokeColor=inherit;overflow=hidden;fillColor=none;top=0;left=0;bottom=0;right=0;pointerEvents=1;fontSize=16;" parent="pRlnWTaC3h9rh6URU6XM-22" vertex="1">
          <mxGeometry x="122" width="61" height="10" as="geometry">
            <mxRectangle width="61" height="10" as="alternateBounds" />
          </mxGeometry>
        </mxCell>
        <mxCell id="hpwI5k3Sn_ClI1EV7RGM-5" style="edgeStyle=orthogonalEdgeStyle;rounded=0;orthogonalLoop=1;jettySize=auto;html=1;entryX=0;entryY=0.5;entryDx=0;entryDy=0;" parent="1" source="hpwI5k3Sn_ClI1EV7RGM-3" target="pRlnWTaC3h9rh6URU6XM-5" edge="1">
          <mxGeometry relative="1" as="geometry" />
        </mxCell>
        <mxCell id="cvWSxfz68PwSCFuVgJ0R-43" style="edgeStyle=orthogonalEdgeStyle;rounded=0;orthogonalLoop=1;jettySize=auto;html=1;entryX=0;entryY=0.5;entryDx=0;entryDy=0;" parent="1" source="hpwI5k3Sn_ClI1EV7RGM-3" target="cvWSxfz68PwSCFuVgJ0R-39" edge="1">
          <mxGeometry relative="1" as="geometry" />
        </mxCell>
        <mxCell id="2JJx2ER6VihFAEzLnYSj-2" style="edgeStyle=orthogonalEdgeStyle;rounded=0;orthogonalLoop=1;jettySize=auto;html=1;entryX=0;entryY=0.5;entryDx=0;entryDy=0;" edge="1" parent="1" source="hpwI5k3Sn_ClI1EV7RGM-3" target="2JJx2ER6VihFAEzLnYSj-1">
          <mxGeometry relative="1" as="geometry" />
        </mxCell>
        <mxCell id="hpwI5k3Sn_ClI1EV7RGM-3" value="D:\qBittorrent Downloads\Video" style="shape=document;whiteSpace=wrap;html=1;boundedLbl=1;fillColor=#6a00ff;fontColor=#ffffff;strokeColor=#3700CC;gradientColor=#611515;" parent="1" vertex="1">
          <mxGeometry x="-649" y="358" width="120" height="58" as="geometry" />
        </mxCell>
        <mxCell id="hpwI5k3Sn_ClI1EV7RGM-21" style="edgeStyle=orthogonalEdgeStyle;rounded=0;orthogonalLoop=1;jettySize=auto;html=1;entryX=0;entryY=0.5;entryDx=0;entryDy=0;" parent="1" source="hpwI5k3Sn_ClI1EV7RGM-6" target="pRlnWTaC3h9rh6URU6XM-5" edge="1">
          <mxGeometry relative="1" as="geometry" />
        </mxCell>
        <mxCell id="hpwI5k3Sn_ClI1EV7RGM-6" value="O:\Video AllInOne" style="shape=document;whiteSpace=wrap;html=1;boundedLbl=1;fillColor=#cce5ff;strokeColor=#36393d;gradientColor=#00CCCC;" parent="1" vertex="1">
          <mxGeometry x="-649" y="418" width="120" height="43" as="geometry" />
        </mxCell>
        <mxCell id="hpwI5k3Sn_ClI1EV7RGM-10" value="INSERT" style="edgeStyle=orthogonalEdgeStyle;rounded=0;orthogonalLoop=1;jettySize=auto;html=1;" parent="1" source="hpwI5k3Sn_ClI1EV7RGM-7" target="hpwI5k3Sn_ClI1EV7RGM-9" edge="1">
          <mxGeometry relative="1" as="geometry" />
        </mxCell>
        <mxCell id="6wlDSMaCos8h1y0onL4E-1" value="" style="edgeStyle=orthogonalEdgeStyle;rounded=0;orthogonalLoop=1;jettySize=auto;html=1;" parent="1" source="hpwI5k3Sn_ClI1EV7RGM-7" target="CZswRZM-3YOw2H6hjbji-1" edge="1">
          <mxGeometry relative="1" as="geometry" />
        </mxCell>
        <mxCell id="hpwI5k3Sn_ClI1EV7RGM-7" value="Chk TMDB API for new entries" style="whiteSpace=wrap;html=1;fontStyle=2" parent="1" vertex="1">
          <mxGeometry x="-440" y="869" width="130" height="60" as="geometry" />
        </mxCell>
        <mxCell id="hpwI5k3Sn_ClI1EV7RGM-9" value="video_data" style="shape=process;whiteSpace=wrap;html=1;backgroundOutline=1;fillColor=#d5e8d4;gradientColor=#97d077;strokeColor=#82b366;" parent="1" vertex="1">
          <mxGeometry x="-219" y="869" width="184" height="60" as="geometry" />
        </mxCell>
        <mxCell id="hpwI5k3Sn_ClI1EV7RGM-12" value="Per Entry" style="edgeStyle=orthogonalEdgeStyle;rounded=0;orthogonalLoop=1;jettySize=auto;html=1;" parent="1" source="hpwI5k3Sn_ClI1EV7RGM-11" target="hpwI5k3Sn_ClI1EV7RGM-7" edge="1">
          <mxGeometry relative="1" as="geometry" />
        </mxCell>
        <mxCell id="hpwI5k3Sn_ClI1EV7RGM-11" value="TMDB API" style="ellipse;shape=cloud;whiteSpace=wrap;html=1;fillColor=#60a917;fontColor=#ffffff;strokeColor=#2D7600;" parent="1" vertex="1">
          <mxGeometry x="-640" y="859" width="120" height="80" as="geometry" />
        </mxCell>
        <mxCell id="hpwI5k3Sn_ClI1EV7RGM-13" value="" style="verticalLabelPosition=bottom;verticalAlign=top;html=1;shape=mxgraph.basic.tick;fillColor=#008a00;fontColor=#ffffff;strokeColor=#005700;" parent="1" vertex="1">
          <mxGeometry x="-534" y="854" width="32" height="30" as="geometry" />
        </mxCell>
        <mxCell id="hpwI5k3Sn_ClI1EV7RGM-16" value="" style="verticalLabelPosition=bottom;verticalAlign=top;html=1;shape=mxgraph.basic.tick;fillColor=#008a00;fontColor=#ffffff;strokeColor=#005700;" parent="1" vertex="1">
          <mxGeometry x="-501" y="570" width="32" height="30" as="geometry" />
        </mxCell>
        <mxCell id="hpwI5k3Sn_ClI1EV7RGM-18" value="" style="verticalLabelPosition=bottom;verticalAlign=top;html=1;shape=mxgraph.basic.tick;fillColor=#008a00;fontColor=#ffffff;strokeColor=#005700;" parent="1" vertex="1">
          <mxGeometry x="-37" y="474" width="32" height="30" as="geometry" />
        </mxCell>
        <mxCell id="hpwI5k3Sn_ClI1EV7RGM-19" value="" style="verticalLabelPosition=bottom;verticalAlign=top;html=1;shape=mxgraph.basic.tick;fillColor=#008a00;fontColor=#ffffff;strokeColor=#005700;" parent="1" vertex="1">
          <mxGeometry x="-36" y="657" width="32" height="30" as="geometry" />
        </mxCell>
        <mxCell id="hpwI5k3Sn_ClI1EV7RGM-22" value="" style="verticalLabelPosition=bottom;verticalAlign=top;html=1;shape=mxgraph.basic.tick;fillColor=#008a00;fontColor=#ffffff;strokeColor=#005700;" parent="1" vertex="1">
          <mxGeometry x="-315" y="650" width="32" height="30" as="geometry" />
        </mxCell>
        <mxCell id="hpwI5k3Sn_ClI1EV7RGM-23" value="" style="verticalLabelPosition=bottom;verticalAlign=top;html=1;shape=mxgraph.basic.tick;fillColor=#008a00;fontColor=#ffffff;strokeColor=#005700;" parent="1" vertex="1">
          <mxGeometry x="-318.37" y="480" width="32" height="30" as="geometry" />
        </mxCell>
        <mxCell id="hpwI5k3Sn_ClI1EV7RGM-25" value="Data&lt;br&gt;Entry" style="edgeStyle=orthogonalEdgeStyle;rounded=0;orthogonalLoop=1;jettySize=auto;html=1;exitX=1;exitY=0.3333333333333333;exitDx=0;exitDy=0;exitPerimeter=0;" parent="1" source="hpwI5k3Sn_ClI1EV7RGM-24" target="pRlnWTaC3h9rh6URU6XM-13" edge="1">
          <mxGeometry x="-0.6162" y="26" relative="1" as="geometry">
            <mxPoint x="-765" y="585" as="targetPoint" />
            <Array as="points">
              <mxPoint x="-775" y="710" />
            </Array>
            <mxPoint as="offset" />
            <mxPoint x="-780" y="575" as="sourcePoint" />
          </mxGeometry>
        </mxCell>
        <mxCell id="hpwI5k3Sn_ClI1EV7RGM-24" value="Me" style="shape=umlActor;verticalLabelPosition=bottom;verticalAlign=top;html=1;outlineConnect=0;" parent="1" vertex="1">
          <mxGeometry x="-804" y="689" width="30" height="60" as="geometry" />
        </mxCell>
        <mxCell id="hpwI5k3Sn_ClI1EV7RGM-27" value="" style="verticalLabelPosition=bottom;verticalAlign=top;html=1;shape=mxgraph.basic.tick;fillColor=#008a00;fontColor=#ffffff;strokeColor=#005700;" parent="1" vertex="1">
          <mxGeometry x="-618.5" y="51" width="32" height="30" as="geometry" />
        </mxCell>
        <mxCell id="hpwI5k3Sn_ClI1EV7RGM-28" value="" style="verticalLabelPosition=bottom;verticalAlign=top;html=1;shape=mxgraph.basic.tick;fillColor=#008a00;fontColor=#ffffff;strokeColor=#005700;" parent="1" vertex="1">
          <mxGeometry x="-529" y="393" width="32" height="30" as="geometry" />
        </mxCell>
        <mxCell id="CZswRZM-3YOw2H6hjbji-8" value="" style="edgeStyle=orthogonalEdgeStyle;rounded=0;orthogonalLoop=1;jettySize=auto;html=1;entryX=0.5;entryY=0;entryDx=0;entryDy=0;" parent="1" source="CZswRZM-3YOw2H6hjbji-1" target="CZswRZM-3YOw2H6hjbji-9" edge="1">
          <mxGeometry relative="1" as="geometry" />
        </mxCell>
        <mxCell id="cvWSxfz68PwSCFuVgJ0R-46" value="INSERT" style="edgeStyle=orthogonalEdgeStyle;rounded=0;orthogonalLoop=1;jettySize=auto;html=1;" parent="1" source="CZswRZM-3YOw2H6hjbji-1" target="CZswRZM-3YOw2H6hjbji-21" edge="1">
          <mxGeometry relative="1" as="geometry" />
        </mxCell>
        <mxCell id="CZswRZM-3YOw2H6hjbji-1" value="Chk IMDB API for new entries" style="whiteSpace=wrap;html=1;" parent="1" vertex="1">
          <mxGeometry x="-440" y="960" width="130" height="60" as="geometry" />
        </mxCell>
        <mxCell id="CZswRZM-3YOw2H6hjbji-7" value="UPDATE" style="edgeStyle=orthogonalEdgeStyle;rounded=0;orthogonalLoop=1;jettySize=auto;html=1;" parent="1" source="CZswRZM-3YOw2H6hjbji-3" target="CZswRZM-3YOw2H6hjbji-6" edge="1">
          <mxGeometry relative="1" as="geometry" />
        </mxCell>
        <mxCell id="cvWSxfz68PwSCFuVgJ0R-53" value="" style="edgeStyle=orthogonalEdgeStyle;rounded=0;orthogonalLoop=1;jettySize=auto;html=1;" parent="1" source="CZswRZM-3YOw2H6hjbji-3" target="CZswRZM-3YOw2H6hjbji-35" edge="1">
          <mxGeometry relative="1" as="geometry" />
        </mxCell>
        <mxCell id="CZswRZM-3YOw2H6hjbji-3" value="Cleanup torrent names with data" style="whiteSpace=wrap;html=1;" parent="1" vertex="1">
          <mxGeometry x="-440" y="1218" width="130" height="60" as="geometry" />
        </mxCell>
        <mxCell id="CZswRZM-3YOw2H6hjbji-5" value="" style="edgeStyle=orthogonalEdgeStyle;rounded=0;orthogonalLoop=1;jettySize=auto;html=1;" parent="1" source="CZswRZM-3YOw2H6hjbji-4" target="CZswRZM-3YOw2H6hjbji-3" edge="1">
          <mxGeometry relative="1" as="geometry" />
        </mxCell>
        <mxCell id="CZswRZM-3YOw2H6hjbji-4" value="video_data" style="shape=process;whiteSpace=wrap;html=1;backgroundOutline=1;fillColor=#d5e8d4;gradientColor=#97d077;strokeColor=#82b366;" parent="1" vertex="1">
          <mxGeometry x="-678" y="1228" width="180" height="40" as="geometry" />
        </mxCell>
        <mxCell id="CZswRZM-3YOw2H6hjbji-6" value="video_files" style="shape=process;whiteSpace=wrap;html=1;backgroundOutline=1;fillColor=#ffcd28;gradientColor=#ffa500;strokeColor=#d79b00;" parent="1" vertex="1">
          <mxGeometry x="-219" y="1218" width="184" height="60" as="geometry" />
        </mxCell>
        <mxCell id="CZswRZM-3YOw2H6hjbji-13" value="INSERT" style="edgeStyle=orthogonalEdgeStyle;rounded=0;orthogonalLoop=1;jettySize=auto;html=1;" parent="1" source="CZswRZM-3YOw2H6hjbji-9" target="CZswRZM-3YOw2H6hjbji-12" edge="1">
          <mxGeometry relative="1" as="geometry" />
        </mxCell>
        <mxCell id="cvWSxfz68PwSCFuVgJ0R-55" value="" style="edgeStyle=orthogonalEdgeStyle;rounded=0;orthogonalLoop=1;jettySize=auto;html=1;" parent="1" source="CZswRZM-3YOw2H6hjbji-9" target="CZswRZM-3YOw2H6hjbji-15" edge="1">
          <mxGeometry relative="1" as="geometry" />
        </mxCell>
        <mxCell id="CZswRZM-3YOw2H6hjbji-9" value="Pull new files to video_files" style="rounded=0;whiteSpace=wrap;html=1;" parent="1" vertex="1">
          <mxGeometry x="-440" y="1049" width="130" height="60" as="geometry" />
        </mxCell>
        <mxCell id="CZswRZM-3YOw2H6hjbji-11" value="" style="edgeStyle=orthogonalEdgeStyle;rounded=0;orthogonalLoop=1;jettySize=auto;html=1;" parent="1" source="CZswRZM-3YOw2H6hjbji-10" target="CZswRZM-3YOw2H6hjbji-9" edge="1">
          <mxGeometry relative="1" as="geometry" />
        </mxCell>
        <mxCell id="CZswRZM-3YOw2H6hjbji-10" value="files" style="shape=process;whiteSpace=wrap;html=1;backgroundOutline=1;fillColor=#f8cecc;strokeColor=#b85450;gradientColor=#ea6b66;" parent="1" vertex="1">
          <mxGeometry x="-678" y="1061" width="180" height="36" as="geometry" />
        </mxCell>
        <mxCell id="CZswRZM-3YOw2H6hjbji-12" value="video_files" style="shape=process;whiteSpace=wrap;html=1;backgroundOutline=1;fillColor=#ffcd28;gradientColor=#ffa500;strokeColor=#d79b00;" parent="1" vertex="1">
          <mxGeometry x="-221" y="1049" width="184" height="60" as="geometry" />
        </mxCell>
        <mxCell id="CZswRZM-3YOw2H6hjbji-19" value="UPDATE" style="edgeStyle=orthogonalEdgeStyle;rounded=0;orthogonalLoop=1;jettySize=auto;html=1;" parent="1" source="CZswRZM-3YOw2H6hjbji-15" target="CZswRZM-3YOw2H6hjbji-18" edge="1">
          <mxGeometry relative="1" as="geometry" />
        </mxCell>
        <mxCell id="cvWSxfz68PwSCFuVgJ0R-54" value="" style="edgeStyle=orthogonalEdgeStyle;rounded=0;orthogonalLoop=1;jettySize=auto;html=1;" parent="1" source="CZswRZM-3YOw2H6hjbji-15" target="CZswRZM-3YOw2H6hjbji-3" edge="1">
          <mxGeometry relative="1" as="geometry" />
        </mxCell>
        <mxCell id="CZswRZM-3YOw2H6hjbji-15" value="Link D to O and take names from O" style="rounded=0;whiteSpace=wrap;html=1;" parent="1" vertex="1">
          <mxGeometry x="-440" y="1137" width="130" height="50" as="geometry" />
        </mxCell>
        <mxCell id="CZswRZM-3YOw2H6hjbji-17" value="" style="edgeStyle=orthogonalEdgeStyle;rounded=0;orthogonalLoop=1;jettySize=auto;html=1;" parent="1" source="CZswRZM-3YOw2H6hjbji-16" target="CZswRZM-3YOw2H6hjbji-15" edge="1">
          <mxGeometry relative="1" as="geometry" />
        </mxCell>
        <mxCell id="CZswRZM-3YOw2H6hjbji-16" value="video_files" style="shape=process;whiteSpace=wrap;html=1;backgroundOutline=1;fillColor=#ffcd28;gradientColor=#ffa500;strokeColor=#d79b00;" parent="1" vertex="1">
          <mxGeometry x="-678" y="1143.25" width="180" height="37.5" as="geometry" />
        </mxCell>
        <mxCell id="CZswRZM-3YOw2H6hjbji-18" value="video_files" style="shape=process;whiteSpace=wrap;html=1;backgroundOutline=1;fillColor=#ffcd28;gradientColor=#ffa500;strokeColor=#d79b00;" parent="1" vertex="1">
          <mxGeometry x="-221" y="1132" width="184" height="60" as="geometry" />
        </mxCell>
        <mxCell id="CZswRZM-3YOw2H6hjbji-21" value="video_data" style="shape=process;whiteSpace=wrap;html=1;backgroundOutline=1;fillColor=#d5e8d4;gradientColor=#97d077;strokeColor=#82b366;" parent="1" vertex="1">
          <mxGeometry x="-219" y="960" width="184" height="60" as="geometry" />
        </mxCell>
        <mxCell id="CZswRZM-3YOw2H6hjbji-22" value="Per Entry" style="edgeStyle=orthogonalEdgeStyle;rounded=0;orthogonalLoop=1;jettySize=auto;html=1;" parent="1" source="CZswRZM-3YOw2H6hjbji-23" target="CZswRZM-3YOw2H6hjbji-1" edge="1">
          <mxGeometry relative="1" as="geometry">
            <mxPoint x="-435" y="881" as="targetPoint" />
          </mxGeometry>
        </mxCell>
        <mxCell id="CZswRZM-3YOw2H6hjbji-23" value="IMDB API" style="ellipse;shape=cloud;whiteSpace=wrap;html=1;fillColor=#e51400;fontColor=#ffffff;strokeColor=#B20000;" parent="1" vertex="1">
          <mxGeometry x="-633" y="950" width="120" height="80" as="geometry" />
        </mxCell>
        <mxCell id="CZswRZM-3YOw2H6hjbji-34" value="INSERT" style="edgeStyle=orthogonalEdgeStyle;rounded=0;orthogonalLoop=1;jettySize=auto;html=1;" parent="1" source="CZswRZM-3YOw2H6hjbji-35" edge="1">
          <mxGeometry relative="1" as="geometry">
            <mxPoint x="-214" y="1340" as="targetPoint" />
          </mxGeometry>
        </mxCell>
        <mxCell id="uHgzk90Tl9gLxocm4gXn-23" value="" style="edgeStyle=orthogonalEdgeStyle;rounded=0;orthogonalLoop=1;jettySize=auto;html=1;" parent="1" source="CZswRZM-3YOw2H6hjbji-35" target="uHgzk90Tl9gLxocm4gXn-22" edge="1">
          <mxGeometry relative="1" as="geometry" />
        </mxCell>
        <mxCell id="CZswRZM-3YOw2H6hjbji-35" value="List Ds not in O by hash" style="rounded=0;whiteSpace=wrap;html=1;" parent="1" vertex="1">
          <mxGeometry x="-440" y="1310" width="130" height="60" as="geometry" />
        </mxCell>
        <mxCell id="CZswRZM-3YOw2H6hjbji-36" value="" style="edgeStyle=orthogonalEdgeStyle;rounded=0;orthogonalLoop=1;jettySize=auto;html=1;" parent="1" source="CZswRZM-3YOw2H6hjbji-37" target="CZswRZM-3YOw2H6hjbji-35" edge="1">
          <mxGeometry relative="1" as="geometry" />
        </mxCell>
        <mxCell id="CZswRZM-3YOw2H6hjbji-37" value="video_files" style="shape=process;whiteSpace=wrap;html=1;backgroundOutline=1;fillColor=#ffcd28;gradientColor=#ffa500;strokeColor=#d79b00;" parent="1" vertex="1">
          <mxGeometry x="-676" y="1321" width="180" height="38" as="geometry" />
        </mxCell>
        <mxCell id="uHgzk90Tl9gLxocm4gXn-41" style="edgeStyle=orthogonalEdgeStyle;rounded=0;orthogonalLoop=1;jettySize=auto;html=1;entryX=0;entryY=0.25;entryDx=0;entryDy=0;" parent="1" source="1Dfc4w6XBSOZAnMc_fKf-33" target="uHgzk90Tl9gLxocm4gXn-24" edge="1">
          <mxGeometry relative="1" as="geometry" />
        </mxCell>
        <mxCell id="1Dfc4w6XBSOZAnMc_fKf-33" value="Me" style="shape=umlActor;verticalLabelPosition=bottom;verticalAlign=top;html=1;outlineConnect=0;" parent="1" vertex="1">
          <mxGeometry x="-804" y="1382" width="30" height="70" as="geometry" />
        </mxCell>
        <mxCell id="uHgzk90Tl9gLxocm4gXn-42" value="" style="edgeStyle=orthogonalEdgeStyle;rounded=0;orthogonalLoop=1;jettySize=auto;html=1;" parent="1" source="1Dfc4w6XBSOZAnMc_fKf-41" target="cvWSxfz68PwSCFuVgJ0R-116" edge="1">
          <mxGeometry relative="1" as="geometry" />
        </mxCell>
        <mxCell id="2JJx2ER6VihFAEzLnYSj-15" value="" style="edgeStyle=orthogonalEdgeStyle;rounded=0;orthogonalLoop=1;jettySize=auto;html=1;" edge="1" parent="1" source="1Dfc4w6XBSOZAnMc_fKf-41" target="2JJx2ER6VihFAEzLnYSj-10">
          <mxGeometry relative="1" as="geometry" />
        </mxCell>
        <mxCell id="1Dfc4w6XBSOZAnMc_fKf-41" value="Publish" style="whiteSpace=wrap;html=1;" parent="1" vertex="1">
          <mxGeometry x="-440" y="1492" width="130" height="60" as="geometry" />
        </mxCell>
        <mxCell id="1Dfc4w6XBSOZAnMc_fKf-43" value="INSERT" style="edgeStyle=orthogonalEdgeStyle;rounded=0;orthogonalLoop=1;jettySize=auto;html=1;" parent="1" source="1Dfc4w6XBSOZAnMc_fKf-44" target="1Dfc4w6XBSOZAnMc_fKf-45" edge="1">
          <mxGeometry relative="1" as="geometry" />
        </mxCell>
        <mxCell id="cvWSxfz68PwSCFuVgJ0R-56" value="" style="edgeStyle=orthogonalEdgeStyle;rounded=0;orthogonalLoop=1;jettySize=auto;html=1;" parent="1" source="1Dfc4w6XBSOZAnMc_fKf-44" target="hpwI5k3Sn_ClI1EV7RGM-7" edge="1">
          <mxGeometry relative="1" as="geometry" />
        </mxCell>
        <mxCell id="1Dfc4w6XBSOZAnMc_fKf-44" value="Fetch all ids" style="whiteSpace=wrap;html=1;fontStyle=2" parent="1" vertex="1">
          <mxGeometry x="-440" y="776" width="130" height="60" as="geometry" />
        </mxCell>
        <mxCell id="1Dfc4w6XBSOZAnMc_fKf-45" value="new_tmdb_ids" style="shape=process;whiteSpace=wrap;html=1;backgroundOutline=1;fillColor=#e6d0de;gradientColor=#d5739d;strokeColor=#996185;" parent="1" vertex="1">
          <mxGeometry x="-219" y="775" width="184" height="60" as="geometry" />
        </mxCell>
        <mxCell id="1Dfc4w6XBSOZAnMc_fKf-46" value="DUMP" style="edgeStyle=orthogonalEdgeStyle;rounded=0;orthogonalLoop=1;jettySize=auto;html=1;" parent="1" source="1Dfc4w6XBSOZAnMc_fKf-47" target="1Dfc4w6XBSOZAnMc_fKf-44" edge="1">
          <mxGeometry relative="1" as="geometry" />
        </mxCell>
        <mxCell id="1Dfc4w6XBSOZAnMc_fKf-47" value="TMDB API" style="ellipse;shape=cloud;whiteSpace=wrap;html=1;fillColor=#60a917;fontColor=#ffffff;strokeColor=#2D7600;" parent="1" vertex="1">
          <mxGeometry x="-640" y="766" width="120" height="80" as="geometry" />
        </mxCell>
        <mxCell id="1Dfc4w6XBSOZAnMc_fKf-48" value="" style="verticalLabelPosition=bottom;verticalAlign=top;html=1;shape=mxgraph.basic.tick;fillColor=#008a00;fontColor=#ffffff;strokeColor=#005700;" parent="1" vertex="1">
          <mxGeometry x="-502" y="650" width="32" height="30" as="geometry" />
        </mxCell>
        <mxCell id="iRs75EtbshPZoWclPqr4-1" value="" style="verticalLabelPosition=bottom;verticalAlign=top;html=1;shape=mxgraph.basic.tick;fillColor=#008a00;fontColor=#ffffff;strokeColor=#005700;" parent="1" vertex="1">
          <mxGeometry x="-317" y="1113" width="32" height="30" as="geometry" />
        </mxCell>
        <mxCell id="iRs75EtbshPZoWclPqr4-9" value="" style="verticalLabelPosition=bottom;verticalAlign=top;html=1;shape=mxgraph.basic.tick;fillColor=#008a00;fontColor=#ffffff;strokeColor=#005700;" parent="1" vertex="1">
          <mxGeometry x="-37" y="746" width="32" height="30" as="geometry" />
        </mxCell>
        <mxCell id="cvWSxfz68PwSCFuVgJ0R-4" value="" style="edgeStyle=orthogonalEdgeStyle;rounded=0;orthogonalLoop=1;jettySize=auto;html=1;" parent="1" edge="1">
          <mxGeometry relative="1" as="geometry">
            <mxPoint x="-498" y="555.4666666666667" as="sourcePoint" />
            <mxPoint x="-440" y="556" as="targetPoint" />
          </mxGeometry>
        </mxCell>
        <mxCell id="uHgzk90Tl9gLxocm4gXn-20" style="edgeStyle=orthogonalEdgeStyle;rounded=0;orthogonalLoop=1;jettySize=auto;html=1;entryX=0;entryY=0.5;entryDx=0;entryDy=0;" parent="1" source="cvWSxfz68PwSCFuVgJ0R-2" target="cvWSxfz68PwSCFuVgJ0R-3" edge="1">
          <mxGeometry relative="1" as="geometry" />
        </mxCell>
        <mxCell id="cvWSxfz68PwSCFuVgJ0R-2" value="files" style="shape=process;whiteSpace=wrap;html=1;backgroundOutline=1;fillColor=#f8cecc;strokeColor=#b85450;gradientColor=#ea6b66;" parent="1" vertex="1">
          <mxGeometry x="-678" y="594" width="180" height="39" as="geometry" />
        </mxCell>
        <mxCell id="cvWSxfz68PwSCFuVgJ0R-7" value="UPDATE" style="edgeStyle=orthogonalEdgeStyle;rounded=0;orthogonalLoop=1;jettySize=auto;html=1;" parent="1" edge="1">
          <mxGeometry relative="1" as="geometry">
            <mxPoint x="-310" y="556" as="sourcePoint" />
            <mxPoint x="-214" y="556" as="targetPoint" />
          </mxGeometry>
        </mxCell>
        <mxCell id="uHgzk90Tl9gLxocm4gXn-14" value="" style="edgeStyle=orthogonalEdgeStyle;rounded=0;orthogonalLoop=1;jettySize=auto;html=1;" parent="1" source="cvWSxfz68PwSCFuVgJ0R-3" target="pRlnWTaC3h9rh6URU6XM-9" edge="1">
          <mxGeometry relative="1" as="geometry" />
        </mxCell>
        <mxCell id="uHgzk90Tl9gLxocm4gXn-21" style="edgeStyle=orthogonalEdgeStyle;rounded=0;orthogonalLoop=1;jettySize=auto;html=1;entryX=0;entryY=0.5;entryDx=0;entryDy=0;" parent="1" source="cvWSxfz68PwSCFuVgJ0R-3" target="cvWSxfz68PwSCFuVgJ0R-5" edge="1">
          <mxGeometry relative="1" as="geometry" />
        </mxCell>
        <mxCell id="cvWSxfz68PwSCFuVgJ0R-3" value="Check for missing hashes" style="whiteSpace=wrap;html=1;" parent="1" vertex="1">
          <mxGeometry x="-440" y="584" width="130" height="60" as="geometry" />
        </mxCell>
        <mxCell id="cvWSxfz68PwSCFuVgJ0R-5" value="files" style="shape=process;whiteSpace=wrap;html=1;backgroundOutline=1;fillColor=#f8cecc;strokeColor=#b85450;gradientColor=#ea6b66;" parent="1" vertex="1">
          <mxGeometry x="-219" y="584" width="184" height="60" as="geometry" />
        </mxCell>
        <mxCell id="cvWSxfz68PwSCFuVgJ0R-11" value="" style="verticalLabelPosition=bottom;verticalAlign=top;html=1;shape=mxgraph.basic.moon" parent="1" vertex="1">
          <mxGeometry x="-685" y="46" width="75" height="100" as="geometry" />
        </mxCell>
        <mxCell id="uHgzk90Tl9gLxocm4gXn-64" value="Kick" style="edgeStyle=orthogonalEdgeStyle;rounded=0;orthogonalLoop=1;jettySize=auto;html=1;" parent="1" source="cvWSxfz68PwSCFuVgJ0R-13" target="pRlnWTaC3h9rh6URU6XM-1" edge="1">
          <mxGeometry x="0.1481" y="11" relative="1" as="geometry">
            <mxPoint as="offset" />
          </mxGeometry>
        </mxCell>
        <mxCell id="cvWSxfz68PwSCFuVgJ0R-13" value="" style="html=1;verticalLabelPosition=bottom;align=center;labelBackgroundColor=#ffffff;verticalAlign=top;strokeWidth=2;strokeColor=#0080F0;shadow=0;dashed=0;shape=mxgraph.ios7.icons.alarm_clock;" parent="1" vertex="1">
          <mxGeometry x="-607" y="86" width="27" height="30" as="geometry" />
        </mxCell>
        <mxCell id="cvWSxfz68PwSCFuVgJ0R-15" value="" style="verticalLabelPosition=bottom;verticalAlign=top;html=1;shape=mxgraph.basic.tick;fillColor=#008a00;fontColor=#ffffff;strokeColor=#005700;" parent="1" vertex="1">
          <mxGeometry x="-35" y="564" width="32" height="30" as="geometry" />
        </mxCell>
        <mxCell id="cvWSxfz68PwSCFuVgJ0R-16" value="" style="verticalLabelPosition=bottom;verticalAlign=top;html=1;shape=mxgraph.basic.tick;fillColor=#008a00;fontColor=#ffffff;strokeColor=#005700;" parent="1" vertex="1">
          <mxGeometry x="-538" y="757" width="32" height="30" as="geometry" />
        </mxCell>
        <mxCell id="cvWSxfz68PwSCFuVgJ0R-17" value="" style="shape=mxgraph.mockup.markup.redX;fillColor=#ff0000;html=1;shadow=0;whiteSpace=wrap;strokeColor=none;" parent="1" vertex="1">
          <mxGeometry x="-359" y="480" width="76" height="38" as="geometry" />
        </mxCell>
        <mxCell id="cvWSxfz68PwSCFuVgJ0R-18" value="" style="verticalLabelPosition=bottom;verticalAlign=top;html=1;shape=mxgraph.basic.tick;fillColor=#008a00;fontColor=#ffffff;strokeColor=#005700;" parent="1" vertex="1">
          <mxGeometry x="-748" y="650" width="32" height="30" as="geometry" />
        </mxCell>
        <mxCell id="cvWSxfz68PwSCFuVgJ0R-30" value="11:52 PM" style="verticalLabelPosition=bottom;verticalAlign=top;html=1;shadow=0;dashed=0;strokeWidth=1;shape=mxgraph.android.text_insertion_point;" parent="1" vertex="1">
          <mxGeometry x="-574" y="106" width="20" height="30" as="geometry" />
        </mxCell>
        <mxCell id="cvWSxfz68PwSCFuVgJ0R-32" value="FilmCab - Daily Early Morning Run" style="text;strokeColor=none;fillColor=none;html=1;fontSize=24;fontStyle=1;verticalAlign=middle;align=center;" parent="1" vertex="1">
          <mxGeometry x="-632" y="4" width="415" height="40" as="geometry" />
        </mxCell>
        <mxCell id="cvWSxfz68PwSCFuVgJ0R-81" value="" style="edgeStyle=orthogonalEdgeStyle;rounded=0;orthogonalLoop=1;jettySize=auto;html=1;entryX=0;entryY=0.5;entryDx=0;entryDy=0;" parent="1" target="pRlnWTaC3h9rh6URU6XM-5" edge="1">
          <mxGeometry relative="1" as="geometry">
            <mxPoint x="-529" y="473.9999999999998" as="sourcePoint" />
          </mxGeometry>
        </mxCell>
        <mxCell id="cvWSxfz68PwSCFuVgJ0R-35" value="G:\Video AllInOne Backup" style="shape=document;whiteSpace=wrap;html=1;boundedLbl=1;fillColor=#d80073;fontColor=#ffffff;strokeColor=#A50040;gradientColor=#1d020f;" parent="1" vertex="1">
          <mxGeometry x="-649" y="464" width="120" height="50" as="geometry" />
        </mxCell>
        <mxCell id="cvWSxfz68PwSCFuVgJ0R-37" value="" style="verticalLabelPosition=bottom;verticalAlign=top;html=1;shape=mxgraph.basic.tick;fillColor=#008a00;fontColor=#ffffff;strokeColor=#005700;" parent="1" vertex="1">
          <mxGeometry x="-529" y="438" width="32" height="30" as="geometry" />
        </mxCell>
        <mxCell id="cvWSxfz68PwSCFuVgJ0R-38" value="" style="verticalLabelPosition=bottom;verticalAlign=top;html=1;shape=mxgraph.basic.tick;fillColor=#008a00;fontColor=#ffffff;strokeColor=#005700;" parent="1" vertex="1">
          <mxGeometry x="-315" y="560" width="32" height="30" as="geometry" />
        </mxCell>
        <mxCell id="cvWSxfz68PwSCFuVgJ0R-42" value="" style="edgeStyle=orthogonalEdgeStyle;rounded=0;orthogonalLoop=1;jettySize=auto;html=1;" parent="1" source="cvWSxfz68PwSCFuVgJ0R-39" target="pRlnWTaC3h9rh6URU6XM-5" edge="1">
          <mxGeometry relative="1" as="geometry" />
        </mxCell>
        <mxCell id="cvWSxfz68PwSCFuVgJ0R-45" value="UPSERT" style="edgeStyle=orthogonalEdgeStyle;rounded=0;orthogonalLoop=1;jettySize=auto;html=1;" parent="1" source="cvWSxfz68PwSCFuVgJ0R-39" target="cvWSxfz68PwSCFuVgJ0R-44" edge="1">
          <mxGeometry relative="1" as="geometry" />
        </mxCell>
        <mxCell id="cvWSxfz68PwSCFuVgJ0R-39" value="Scan for new directories" style="whiteSpace=wrap;html=1;" parent="1" vertex="1">
          <mxGeometry x="-440" y="401" width="130" height="60" as="geometry" />
        </mxCell>
        <mxCell id="cvWSxfz68PwSCFuVgJ0R-44" value="directories" style="shape=process;whiteSpace=wrap;html=1;backgroundOutline=1;fillColor=#8b7e55;gradientColor=#ffd966;strokeColor=#d6b656;" parent="1" vertex="1">
          <mxGeometry x="-219" y="402" width="184" height="60" as="geometry" />
        </mxCell>
        <mxCell id="cvWSxfz68PwSCFuVgJ0R-57" value="" style="verticalLabelPosition=bottom;verticalAlign=top;html=1;shape=mxgraph.basic.tick;fillColor=#008a00;fontColor=#ffffff;strokeColor=#005700;" parent="1" vertex="1">
          <mxGeometry x="-505" y="1035" width="32" height="30" as="geometry" />
        </mxCell>
        <mxCell id="cvWSxfz68PwSCFuVgJ0R-58" value="new_tmdb_ids" style="shape=process;whiteSpace=wrap;html=1;backgroundOutline=1;fillColor=#e6d0de;gradientColor=#d5739d;strokeColor=#996185;" parent="1" vertex="1">
          <mxGeometry x="-840" y="884" width="150" height="40" as="geometry" />
        </mxCell>
        <mxCell id="cvWSxfz68PwSCFuVgJ0R-59" style="edgeStyle=orthogonalEdgeStyle;rounded=0;orthogonalLoop=1;jettySize=auto;html=1;entryX=0.16;entryY=0.55;entryDx=0;entryDy=0;entryPerimeter=0;" parent="1" source="cvWSxfz68PwSCFuVgJ0R-58" target="hpwI5k3Sn_ClI1EV7RGM-11" edge="1">
          <mxGeometry relative="1" as="geometry" />
        </mxCell>
        <mxCell id="cvWSxfz68PwSCFuVgJ0R-82" value="" style="verticalLabelPosition=bottom;verticalAlign=top;html=1;shape=mxgraph.basic.tick;fillColor=#008a00;fontColor=#ffffff;strokeColor=#005700;" parent="1" vertex="1">
          <mxGeometry x="-35" y="382" width="32" height="30" as="geometry" />
        </mxCell>
        <mxCell id="cvWSxfz68PwSCFuVgJ0R-84" style="edgeStyle=orthogonalEdgeStyle;rounded=0;orthogonalLoop=1;jettySize=auto;html=1;" parent="1" source="cvWSxfz68PwSCFuVgJ0R-83" target="hpwI5k3Sn_ClI1EV7RGM-24" edge="1">
          <mxGeometry relative="1" as="geometry" />
        </mxCell>
        <mxCell id="cvWSxfz68PwSCFuVgJ0R-83" value="Keep List" style="ellipse;shape=cloud;whiteSpace=wrap;html=1;fillColor=#60a917;strokeColor=#2D7600;fontColor=#ffffff;" parent="1" vertex="1">
          <mxGeometry x="-849" y="568" width="120" height="80" as="geometry" />
        </mxCell>
        <mxCell id="cvWSxfz68PwSCFuVgJ0R-85" value="" style="verticalLabelPosition=bottom;verticalAlign=top;html=1;shape=mxgraph.basic.tick;fillColor=#008a00;fontColor=#ffffff;strokeColor=#005700;" parent="1" vertex="1">
          <mxGeometry x="-745" y="559" width="32" height="30" as="geometry" />
        </mxCell>
        <mxCell id="cvWSxfz68PwSCFuVgJ0R-86" value="" style="outlineConnect=0;dashed=0;verticalLabelPosition=bottom;verticalAlign=top;align=center;html=1;shape=mxgraph.aws3.codebuild;fillColor=#fa6800;fontColor=#000000;strokeColor=#C73500;" parent="1" vertex="1">
          <mxGeometry x="-318.37" y="375.5" width="35.37" height="43" as="geometry" />
        </mxCell>
        <mxCell id="cvWSxfz68PwSCFuVgJ0R-103" value="review_for_publishing.xlsm" style="shape=table;startSize=30;container=1;collapsible=0;childLayout=tableLayout;strokeColor=default;fontSize=16;" parent="1" vertex="1">
          <mxGeometry x="-218" y="1310" width="193" height="60" as="geometry" />
        </mxCell>
        <mxCell id="cvWSxfz68PwSCFuVgJ0R-104" value="" style="shape=tableRow;horizontal=0;startSize=0;swimlaneHead=0;swimlaneBody=0;strokeColor=inherit;top=0;left=0;bottom=0;right=0;collapsible=0;dropTarget=0;fillColor=none;points=[[0,0.5],[1,0.5]];portConstraint=eastwest;fontSize=16;" parent="cvWSxfz68PwSCFuVgJ0R-103" vertex="1">
          <mxGeometry y="30" width="193" height="10" as="geometry" />
        </mxCell>
        <mxCell id="cvWSxfz68PwSCFuVgJ0R-105" value="" style="shape=partialRectangle;html=1;whiteSpace=wrap;connectable=0;strokeColor=inherit;overflow=hidden;fillColor=none;top=0;left=0;bottom=0;right=0;pointerEvents=1;fontSize=16;" parent="cvWSxfz68PwSCFuVgJ0R-104" vertex="1">
          <mxGeometry width="64" height="10" as="geometry">
            <mxRectangle width="64" height="10" as="alternateBounds" />
          </mxGeometry>
        </mxCell>
        <mxCell id="cvWSxfz68PwSCFuVgJ0R-106" value="" style="shape=partialRectangle;html=1;whiteSpace=wrap;connectable=0;strokeColor=inherit;overflow=hidden;fillColor=none;top=0;left=0;bottom=0;right=0;pointerEvents=1;fontSize=16;" parent="cvWSxfz68PwSCFuVgJ0R-104" vertex="1">
          <mxGeometry x="64" width="65" height="10" as="geometry">
            <mxRectangle width="65" height="10" as="alternateBounds" />
          </mxGeometry>
        </mxCell>
        <mxCell id="cvWSxfz68PwSCFuVgJ0R-107" value="" style="shape=partialRectangle;html=1;whiteSpace=wrap;connectable=0;strokeColor=inherit;overflow=hidden;fillColor=none;top=0;left=0;bottom=0;right=0;pointerEvents=1;fontSize=16;" parent="cvWSxfz68PwSCFuVgJ0R-104" vertex="1">
          <mxGeometry x="129" width="64" height="10" as="geometry">
            <mxRectangle width="64" height="10" as="alternateBounds" />
          </mxGeometry>
        </mxCell>
        <mxCell id="cvWSxfz68PwSCFuVgJ0R-108" value="" style="shape=tableRow;horizontal=0;startSize=0;swimlaneHead=0;swimlaneBody=0;strokeColor=inherit;top=0;left=0;bottom=0;right=0;collapsible=0;dropTarget=0;fillColor=none;points=[[0,0.5],[1,0.5]];portConstraint=eastwest;fontSize=16;" parent="cvWSxfz68PwSCFuVgJ0R-103" vertex="1">
          <mxGeometry y="40" width="193" height="10" as="geometry" />
        </mxCell>
        <mxCell id="cvWSxfz68PwSCFuVgJ0R-109" value="" style="shape=partialRectangle;html=1;whiteSpace=wrap;connectable=0;strokeColor=inherit;overflow=hidden;fillColor=none;top=0;left=0;bottom=0;right=0;pointerEvents=1;fontSize=16;" parent="cvWSxfz68PwSCFuVgJ0R-108" vertex="1">
          <mxGeometry width="64" height="10" as="geometry">
            <mxRectangle width="64" height="10" as="alternateBounds" />
          </mxGeometry>
        </mxCell>
        <mxCell id="cvWSxfz68PwSCFuVgJ0R-110" value="" style="shape=partialRectangle;html=1;whiteSpace=wrap;connectable=0;strokeColor=inherit;overflow=hidden;fillColor=none;top=0;left=0;bottom=0;right=0;pointerEvents=1;fontSize=16;" parent="cvWSxfz68PwSCFuVgJ0R-108" vertex="1">
          <mxGeometry x="64" width="65" height="10" as="geometry">
            <mxRectangle width="65" height="10" as="alternateBounds" />
          </mxGeometry>
        </mxCell>
        <mxCell id="cvWSxfz68PwSCFuVgJ0R-111" value="" style="shape=partialRectangle;html=1;whiteSpace=wrap;connectable=0;strokeColor=inherit;overflow=hidden;fillColor=none;top=0;left=0;bottom=0;right=0;pointerEvents=1;fontSize=16;" parent="cvWSxfz68PwSCFuVgJ0R-108" vertex="1">
          <mxGeometry x="129" width="64" height="10" as="geometry">
            <mxRectangle width="64" height="10" as="alternateBounds" />
          </mxGeometry>
        </mxCell>
        <mxCell id="cvWSxfz68PwSCFuVgJ0R-112" value="" style="shape=tableRow;horizontal=0;startSize=0;swimlaneHead=0;swimlaneBody=0;strokeColor=inherit;top=0;left=0;bottom=0;right=0;collapsible=0;dropTarget=0;fillColor=none;points=[[0,0.5],[1,0.5]];portConstraint=eastwest;fontSize=16;" parent="cvWSxfz68PwSCFuVgJ0R-103" vertex="1">
          <mxGeometry y="50" width="193" height="10" as="geometry" />
        </mxCell>
        <mxCell id="cvWSxfz68PwSCFuVgJ0R-113" value="" style="shape=partialRectangle;html=1;whiteSpace=wrap;connectable=0;strokeColor=inherit;overflow=hidden;fillColor=none;top=0;left=0;bottom=0;right=0;pointerEvents=1;fontSize=16;" parent="cvWSxfz68PwSCFuVgJ0R-112" vertex="1">
          <mxGeometry width="64" height="10" as="geometry">
            <mxRectangle width="64" height="10" as="alternateBounds" />
          </mxGeometry>
        </mxCell>
        <mxCell id="cvWSxfz68PwSCFuVgJ0R-114" value="" style="shape=partialRectangle;html=1;whiteSpace=wrap;connectable=0;strokeColor=inherit;overflow=hidden;fillColor=none;top=0;left=0;bottom=0;right=0;pointerEvents=1;fontSize=16;" parent="cvWSxfz68PwSCFuVgJ0R-112" vertex="1">
          <mxGeometry x="64" width="65" height="10" as="geometry">
            <mxRectangle width="65" height="10" as="alternateBounds" />
          </mxGeometry>
        </mxCell>
        <mxCell id="cvWSxfz68PwSCFuVgJ0R-115" value="" style="shape=partialRectangle;html=1;whiteSpace=wrap;connectable=0;strokeColor=inherit;overflow=hidden;fillColor=none;top=0;left=0;bottom=0;right=0;pointerEvents=1;fontSize=16;" parent="cvWSxfz68PwSCFuVgJ0R-112" vertex="1">
          <mxGeometry x="129" width="64" height="10" as="geometry">
            <mxRectangle width="64" height="10" as="alternateBounds" />
          </mxGeometry>
        </mxCell>
        <mxCell id="cvWSxfz68PwSCFuVgJ0R-116" value="O:\Video AllInOne" style="shape=document;whiteSpace=wrap;html=1;boundedLbl=1;fillColor=#cce5ff;strokeColor=#36393d;gradientColor=#00CCCC;" parent="1" vertex="1">
          <mxGeometry x="-217" y="1500.5" width="120" height="43" as="geometry" />
        </mxCell>
        <mxCell id="uHgzk90Tl9gLxocm4gXn-1" value="" style="verticalLabelPosition=bottom;html=1;verticalAlign=top;align=center;strokeColor=none;fillColor=#00BEF2;shape=mxgraph.azure.powershell_file;pointerEvents=1;" parent="1" vertex="1">
          <mxGeometry x="-440" y="381" width="24" height="20" as="geometry" />
        </mxCell>
        <mxCell id="uHgzk90Tl9gLxocm4gXn-2" value="" style="verticalLabelPosition=bottom;html=1;verticalAlign=top;align=center;strokeColor=none;fillColor=#00BEF2;shape=mxgraph.azure.powershell_file;pointerEvents=1;" parent="1" vertex="1">
          <mxGeometry x="-440" y="474" width="24" height="20" as="geometry" />
        </mxCell>
        <mxCell id="uHgzk90Tl9gLxocm4gXn-3" value="" style="verticalLabelPosition=bottom;html=1;verticalAlign=top;align=center;strokeColor=none;fillColor=#00BEF2;shape=mxgraph.azure.powershell_file;pointerEvents=1;" parent="1" vertex="1">
          <mxGeometry x="-440" y="563" width="24" height="20" as="geometry" />
        </mxCell>
        <mxCell id="uHgzk90Tl9gLxocm4gXn-4" value="" style="verticalLabelPosition=bottom;html=1;verticalAlign=top;align=center;strokeColor=none;fillColor=#00BEF2;shape=mxgraph.azure.powershell_file;pointerEvents=1;" parent="1" vertex="1">
          <mxGeometry x="-440" y="660" width="24" height="20" as="geometry" />
        </mxCell>
        <mxCell id="uHgzk90Tl9gLxocm4gXn-5" value="user_excel_interface" style="shape=process;whiteSpace=wrap;html=1;backgroundOutline=1;" parent="1" vertex="1">
          <mxGeometry x="-218" y="680" width="184" height="60" as="geometry" />
        </mxCell>
        <mxCell id="uHgzk90Tl9gLxocm4gXn-6" value="" style="verticalLabelPosition=bottom;html=1;verticalAlign=top;align=center;strokeColor=none;fillColor=#00BEF2;shape=mxgraph.azure.powershell_file;pointerEvents=1;" parent="1" vertex="1">
          <mxGeometry x="-440" y="754" width="24" height="20" as="geometry" />
        </mxCell>
        <mxCell id="uHgzk90Tl9gLxocm4gXn-8" value="" style="verticalLabelPosition=bottom;html=1;verticalAlign=top;align=center;strokeColor=none;fillColor=#00BEF2;shape=mxgraph.azure.powershell_file;pointerEvents=1;" parent="1" vertex="1">
          <mxGeometry x="-440" y="849" width="24" height="20" as="geometry" />
        </mxCell>
        <mxCell id="uHgzk90Tl9gLxocm4gXn-12" style="edgeStyle=orthogonalEdgeStyle;rounded=0;orthogonalLoop=1;jettySize=auto;html=1;entryX=0;entryY=0.5;entryDx=0;entryDy=0;" parent="1" source="uHgzk90Tl9gLxocm4gXn-9" target="pRlnWTaC3h9rh6URU6XM-5" edge="1">
          <mxGeometry relative="1" as="geometry">
            <Array as="points">
              <mxPoint x="-480" y="538" />
              <mxPoint x="-480" y="524" />
            </Array>
          </mxGeometry>
        </mxCell>
        <mxCell id="uHgzk90Tl9gLxocm4gXn-9" value="directories" style="shape=process;whiteSpace=wrap;html=1;backgroundOutline=1;fillColor=#8b7e55;gradientColor=#ffd966;strokeColor=#d6b656;" parent="1" vertex="1">
          <mxGeometry x="-680" y="518" width="179" height="40" as="geometry" />
        </mxCell>
        <mxCell id="uHgzk90Tl9gLxocm4gXn-11" value="" style="verticalLabelPosition=bottom;verticalAlign=top;html=1;shape=mxgraph.basic.tick;fillColor=#008a00;fontColor=#ffffff;strokeColor=#005700;" parent="1" vertex="1">
          <mxGeometry x="-513" y="494" width="32" height="30" as="geometry" />
        </mxCell>
        <mxCell id="uHgzk90Tl9gLxocm4gXn-15" value="" style="outlineConnect=0;dashed=0;verticalLabelPosition=bottom;verticalAlign=top;align=center;html=1;shape=mxgraph.aws3.postgre_sql_instance;fillColor=#2E73B8;gradientColor=none;" parent="1" vertex="1">
          <mxGeometry x="-440" y="1027" width="20.95" height="22" as="geometry" />
        </mxCell>
        <mxCell id="uHgzk90Tl9gLxocm4gXn-16" value="" style="outlineConnect=0;dashed=0;verticalLabelPosition=bottom;verticalAlign=top;align=center;html=1;shape=mxgraph.aws3.postgre_sql_instance;fillColor=#2E73B8;gradientColor=none;" parent="1" vertex="1">
          <mxGeometry x="-440" y="1116" width="20.95" height="22" as="geometry" />
        </mxCell>
        <mxCell id="uHgzk90Tl9gLxocm4gXn-17" value="" style="outlineConnect=0;dashed=0;verticalLabelPosition=bottom;verticalAlign=top;align=center;html=1;shape=mxgraph.aws3.postgre_sql_instance;fillColor=#2E73B8;gradientColor=none;" parent="1" vertex="1">
          <mxGeometry x="-440" y="1288" width="20.95" height="22" as="geometry" />
        </mxCell>
        <mxCell id="uHgzk90Tl9gLxocm4gXn-18" value="" style="verticalLabelPosition=bottom;verticalAlign=top;html=1;shape=mxgraph.basic.tick;fillColor=#008a00;fontColor=#ffffff;strokeColor=#005700;" parent="1" vertex="1">
          <mxGeometry x="-694.5" y="859" width="32" height="30" as="geometry" />
        </mxCell>
        <mxCell id="uHgzk90Tl9gLxocm4gXn-39" value="" style="edgeStyle=orthogonalEdgeStyle;rounded=0;orthogonalLoop=1;jettySize=auto;html=1;" parent="1" source="uHgzk90Tl9gLxocm4gXn-22" target="uHgzk90Tl9gLxocm4gXn-38" edge="1">
          <mxGeometry relative="1" as="geometry" />
        </mxCell>
        <mxCell id="uHgzk90Tl9gLxocm4gXn-43" value="" style="edgeStyle=orthogonalEdgeStyle;rounded=0;orthogonalLoop=1;jettySize=auto;html=1;" parent="1" source="uHgzk90Tl9gLxocm4gXn-22" target="1Dfc4w6XBSOZAnMc_fKf-41" edge="1">
          <mxGeometry relative="1" as="geometry" />
        </mxCell>
        <mxCell id="uHgzk90Tl9gLxocm4gXn-22" value="Clean Name" style="rounded=0;whiteSpace=wrap;html=1;" parent="1" vertex="1">
          <mxGeometry x="-440" y="1402" width="130" height="60" as="geometry" />
        </mxCell>
        <mxCell id="uHgzk90Tl9gLxocm4gXn-37" value="" style="edgeStyle=orthogonalEdgeStyle;rounded=0;orthogonalLoop=1;jettySize=auto;html=1;" parent="1" source="uHgzk90Tl9gLxocm4gXn-24" target="uHgzk90Tl9gLxocm4gXn-22" edge="1">
          <mxGeometry relative="1" as="geometry" />
        </mxCell>
        <mxCell id="uHgzk90Tl9gLxocm4gXn-24" value="review_for_publishing.xlsm" style="shape=table;startSize=30;container=1;collapsible=0;childLayout=tableLayout;strokeColor=default;fontSize=16;" parent="1" vertex="1">
          <mxGeometry x="-691" y="1402" width="193" height="60" as="geometry" />
        </mxCell>
        <mxCell id="uHgzk90Tl9gLxocm4gXn-25" value="" style="shape=tableRow;horizontal=0;startSize=0;swimlaneHead=0;swimlaneBody=0;strokeColor=inherit;top=0;left=0;bottom=0;right=0;collapsible=0;dropTarget=0;fillColor=none;points=[[0,0.5],[1,0.5]];portConstraint=eastwest;fontSize=16;" parent="uHgzk90Tl9gLxocm4gXn-24" vertex="1">
          <mxGeometry y="30" width="193" height="10" as="geometry" />
        </mxCell>
        <mxCell id="uHgzk90Tl9gLxocm4gXn-26" value="" style="shape=partialRectangle;html=1;whiteSpace=wrap;connectable=0;strokeColor=inherit;overflow=hidden;fillColor=none;top=0;left=0;bottom=0;right=0;pointerEvents=1;fontSize=16;" parent="uHgzk90Tl9gLxocm4gXn-25" vertex="1">
          <mxGeometry width="64" height="10" as="geometry">
            <mxRectangle width="64" height="10" as="alternateBounds" />
          </mxGeometry>
        </mxCell>
        <mxCell id="uHgzk90Tl9gLxocm4gXn-27" value="" style="shape=partialRectangle;html=1;whiteSpace=wrap;connectable=0;strokeColor=inherit;overflow=hidden;fillColor=none;top=0;left=0;bottom=0;right=0;pointerEvents=1;fontSize=16;" parent="uHgzk90Tl9gLxocm4gXn-25" vertex="1">
          <mxGeometry x="64" width="65" height="10" as="geometry">
            <mxRectangle width="65" height="10" as="alternateBounds" />
          </mxGeometry>
        </mxCell>
        <mxCell id="uHgzk90Tl9gLxocm4gXn-28" value="" style="shape=partialRectangle;html=1;whiteSpace=wrap;connectable=0;strokeColor=inherit;overflow=hidden;fillColor=none;top=0;left=0;bottom=0;right=0;pointerEvents=1;fontSize=16;" parent="uHgzk90Tl9gLxocm4gXn-25" vertex="1">
          <mxGeometry x="129" width="64" height="10" as="geometry">
            <mxRectangle width="64" height="10" as="alternateBounds" />
          </mxGeometry>
        </mxCell>
        <mxCell id="uHgzk90Tl9gLxocm4gXn-29" value="" style="shape=tableRow;horizontal=0;startSize=0;swimlaneHead=0;swimlaneBody=0;strokeColor=inherit;top=0;left=0;bottom=0;right=0;collapsible=0;dropTarget=0;fillColor=none;points=[[0,0.5],[1,0.5]];portConstraint=eastwest;fontSize=16;" parent="uHgzk90Tl9gLxocm4gXn-24" vertex="1">
          <mxGeometry y="40" width="193" height="10" as="geometry" />
        </mxCell>
        <mxCell id="uHgzk90Tl9gLxocm4gXn-30" value="" style="shape=partialRectangle;html=1;whiteSpace=wrap;connectable=0;strokeColor=inherit;overflow=hidden;fillColor=none;top=0;left=0;bottom=0;right=0;pointerEvents=1;fontSize=16;" parent="uHgzk90Tl9gLxocm4gXn-29" vertex="1">
          <mxGeometry width="64" height="10" as="geometry">
            <mxRectangle width="64" height="10" as="alternateBounds" />
          </mxGeometry>
        </mxCell>
        <mxCell id="uHgzk90Tl9gLxocm4gXn-31" value="" style="shape=partialRectangle;html=1;whiteSpace=wrap;connectable=0;strokeColor=inherit;overflow=hidden;fillColor=none;top=0;left=0;bottom=0;right=0;pointerEvents=1;fontSize=16;" parent="uHgzk90Tl9gLxocm4gXn-29" vertex="1">
          <mxGeometry x="64" width="65" height="10" as="geometry">
            <mxRectangle width="65" height="10" as="alternateBounds" />
          </mxGeometry>
        </mxCell>
        <mxCell id="uHgzk90Tl9gLxocm4gXn-32" value="" style="shape=partialRectangle;html=1;whiteSpace=wrap;connectable=0;strokeColor=inherit;overflow=hidden;fillColor=none;top=0;left=0;bottom=0;right=0;pointerEvents=1;fontSize=16;" parent="uHgzk90Tl9gLxocm4gXn-29" vertex="1">
          <mxGeometry x="129" width="64" height="10" as="geometry">
            <mxRectangle width="64" height="10" as="alternateBounds" />
          </mxGeometry>
        </mxCell>
        <mxCell id="uHgzk90Tl9gLxocm4gXn-33" value="" style="shape=tableRow;horizontal=0;startSize=0;swimlaneHead=0;swimlaneBody=0;strokeColor=inherit;top=0;left=0;bottom=0;right=0;collapsible=0;dropTarget=0;fillColor=none;points=[[0,0.5],[1,0.5]];portConstraint=eastwest;fontSize=16;" parent="uHgzk90Tl9gLxocm4gXn-24" vertex="1">
          <mxGeometry y="50" width="193" height="10" as="geometry" />
        </mxCell>
        <mxCell id="uHgzk90Tl9gLxocm4gXn-34" value="" style="shape=partialRectangle;html=1;whiteSpace=wrap;connectable=0;strokeColor=inherit;overflow=hidden;fillColor=none;top=0;left=0;bottom=0;right=0;pointerEvents=1;fontSize=16;" parent="uHgzk90Tl9gLxocm4gXn-33" vertex="1">
          <mxGeometry width="64" height="10" as="geometry">
            <mxRectangle width="64" height="10" as="alternateBounds" />
          </mxGeometry>
        </mxCell>
        <mxCell id="uHgzk90Tl9gLxocm4gXn-35" value="" style="shape=partialRectangle;html=1;whiteSpace=wrap;connectable=0;strokeColor=inherit;overflow=hidden;fillColor=none;top=0;left=0;bottom=0;right=0;pointerEvents=1;fontSize=16;" parent="uHgzk90Tl9gLxocm4gXn-33" vertex="1">
          <mxGeometry x="64" width="65" height="10" as="geometry">
            <mxRectangle width="65" height="10" as="alternateBounds" />
          </mxGeometry>
        </mxCell>
        <mxCell id="uHgzk90Tl9gLxocm4gXn-36" value="" style="shape=partialRectangle;html=1;whiteSpace=wrap;connectable=0;strokeColor=inherit;overflow=hidden;fillColor=none;top=0;left=0;bottom=0;right=0;pointerEvents=1;fontSize=16;" parent="uHgzk90Tl9gLxocm4gXn-33" vertex="1">
          <mxGeometry x="129" width="64" height="10" as="geometry">
            <mxRectangle width="64" height="10" as="alternateBounds" />
          </mxGeometry>
        </mxCell>
        <mxCell id="uHgzk90Tl9gLxocm4gXn-38" value="video_files" style="shape=process;whiteSpace=wrap;html=1;backgroundOutline=1;fillColor=#ffcd28;gradientColor=#ffa500;strokeColor=#d79b00;" parent="1" vertex="1">
          <mxGeometry x="-219" y="1402" width="184" height="60" as="geometry" />
        </mxCell>
        <mxCell id="uHgzk90Tl9gLxocm4gXn-46" value="" style="edgeStyle=orthogonalEdgeStyle;rounded=0;orthogonalLoop=1;jettySize=auto;html=1;" parent="1" source="uHgzk90Tl9gLxocm4gXn-45" target="1Dfc4w6XBSOZAnMc_fKf-41" edge="1">
          <mxGeometry relative="1" as="geometry" />
        </mxCell>
        <mxCell id="uHgzk90Tl9gLxocm4gXn-45" value="video_files" style="shape=process;whiteSpace=wrap;html=1;backgroundOutline=1;fillColor=#ffcd28;gradientColor=#ffa500;strokeColor=#d79b00;" parent="1" vertex="1">
          <mxGeometry x="-694.5" y="1492" width="184" height="60" as="geometry" />
        </mxCell>
        <mxCell id="uHgzk90Tl9gLxocm4gXn-48" style="edgeStyle=orthogonalEdgeStyle;rounded=0;orthogonalLoop=1;jettySize=auto;html=1;entryX=0;entryY=0.5;entryDx=0;entryDy=0;" parent="1" source="uHgzk90Tl9gLxocm4gXn-47" target="1Dfc4w6XBSOZAnMc_fKf-41" edge="1">
          <mxGeometry relative="1" as="geometry" />
        </mxCell>
        <mxCell id="uHgzk90Tl9gLxocm4gXn-47" value="D:\qBittorrent Downloads\Video" style="shape=document;whiteSpace=wrap;html=1;boundedLbl=1;fillColor=#6a00ff;fontColor=#ffffff;strokeColor=#3700CC;gradientColor=#611515;" parent="1" vertex="1">
          <mxGeometry x="-646" y="1562" width="120" height="58" as="geometry" />
        </mxCell>
        <mxCell id="uHgzk90Tl9gLxocm4gXn-65" value="Yes" style="edgeStyle=orthogonalEdgeStyle;rounded=0;orthogonalLoop=1;jettySize=auto;html=1;exitX=0;exitY=1;exitDx=0;exitDy=0;entryX=0.808;entryY=0.75;entryDx=0;entryDy=0;entryPerimeter=0;" parent="1" source="pRlnWTaC3h9rh6URU6XM-2" target="pRlnWTaC3h9rh6URU6XM-1" edge="1">
          <mxGeometry x="0.2195" y="14" relative="1" as="geometry">
            <mxPoint as="offset" />
          </mxGeometry>
        </mxCell>
        <mxCell id="2JJx2ER6VihFAEzLnYSj-5" style="edgeStyle=orthogonalEdgeStyle;rounded=0;orthogonalLoop=1;jettySize=auto;html=1;entryX=0;entryY=0.5;entryDx=0;entryDy=0;" edge="1" parent="1" source="2JJx2ER6VihFAEzLnYSj-1" target="2JJx2ER6VihFAEzLnYSj-4">
          <mxGeometry relative="1" as="geometry" />
        </mxCell>
        <mxCell id="2JJx2ER6VihFAEzLnYSj-1" value="Back up new published files" style="whiteSpace=wrap;html=1;" vertex="1" parent="1">
          <mxGeometry x="-440" y="300" width="130" height="60" as="geometry" />
        </mxCell>
        <mxCell id="2JJx2ER6VihFAEzLnYSj-3" value="" style="verticalLabelPosition=bottom;verticalAlign=top;html=1;shape=mxgraph.basic.tick;fillColor=#008a00;fontColor=#ffffff;strokeColor=#005700;" vertex="1" parent="1">
          <mxGeometry x="-529" y="340" width="32" height="30" as="geometry" />
        </mxCell>
        <mxCell id="2JJx2ER6VihFAEzLnYSj-4" value="G:\Video AllInOne Backup" style="shape=document;whiteSpace=wrap;html=1;boundedLbl=1;fillColor=#d80073;fontColor=#ffffff;strokeColor=#A50040;gradientColor=#1d020f;" vertex="1" parent="1">
          <mxGeometry x="-189" y="308" width="120" height="45" as="geometry" />
        </mxCell>
        <mxCell id="2JJx2ER6VihFAEzLnYSj-6" value="" style="verticalLabelPosition=bottom;verticalAlign=top;html=1;shape=mxgraph.basic.tick;fillColor=#008a00;fontColor=#ffffff;strokeColor=#005700;" vertex="1" parent="1">
          <mxGeometry x="-310" y="278" width="32" height="30" as="geometry" />
        </mxCell>
        <mxCell id="2JJx2ER6VihFAEzLnYSj-8" value="" style="verticalLabelPosition=bottom;verticalAlign=top;html=1;shape=mxgraph.basic.tick;fillColor=#008a00;fontColor=#ffffff;strokeColor=#005700;" vertex="1" parent="1">
          <mxGeometry x="-80" y="280" width="32" height="30" as="geometry" />
        </mxCell>
        <mxCell id="2JJx2ER6VihFAEzLnYSj-11" value="" style="edgeStyle=orthogonalEdgeStyle;rounded=0;orthogonalLoop=1;jettySize=auto;html=1;" edge="1" parent="1" source="2JJx2ER6VihFAEzLnYSj-9" target="2JJx2ER6VihFAEzLnYSj-10">
          <mxGeometry relative="1" as="geometry" />
        </mxCell>
        <mxCell id="2JJx2ER6VihFAEzLnYSj-9" value="user_excel_interface" style="shape=process;whiteSpace=wrap;html=1;backgroundOutline=1;" vertex="1" parent="1">
          <mxGeometry x="-665" y="1630" width="184" height="60" as="geometry" />
        </mxCell>
        <mxCell id="2JJx2ER6VihFAEzLnYSj-13" value="UPDATE" style="edgeStyle=orthogonalEdgeStyle;rounded=0;orthogonalLoop=1;jettySize=auto;html=1;" edge="1" parent="1" source="2JJx2ER6VihFAEzLnYSj-10" target="2JJx2ER6VihFAEzLnYSj-12">
          <mxGeometry relative="1" as="geometry" />
        </mxCell>
        <mxCell id="2JJx2ER6VihFAEzLnYSj-16" value="UPDATE" style="edgeStyle=orthogonalEdgeStyle;rounded=0;orthogonalLoop=1;jettySize=auto;html=1;exitX=1;exitY=0.75;exitDx=0;exitDy=0;entryX=0;entryY=0.5;entryDx=0;entryDy=0;" edge="1" parent="1" source="2JJx2ER6VihFAEzLnYSj-10" target="2JJx2ER6VihFAEzLnYSj-14">
          <mxGeometry relative="1" as="geometry" />
        </mxCell>
        <mxCell id="2JJx2ER6VihFAEzLnYSj-33" value="" style="edgeStyle=orthogonalEdgeStyle;rounded=0;orthogonalLoop=1;jettySize=auto;html=1;" edge="1" parent="1" source="2JJx2ER6VihFAEzLnYSj-10" target="2JJx2ER6VihFAEzLnYSj-32">
          <mxGeometry relative="1" as="geometry" />
        </mxCell>
        <mxCell id="2JJx2ER6VihFAEzLnYSj-10" value="Link user list to videos" style="whiteSpace=wrap;html=1;" vertex="1" parent="1">
          <mxGeometry x="-440" y="1630" width="130" height="60" as="geometry" />
        </mxCell>
        <mxCell id="2JJx2ER6VihFAEzLnYSj-12" value="video_files" style="shape=process;whiteSpace=wrap;html=1;backgroundOutline=1;fillColor=#ffcd28;gradientColor=#ffa500;strokeColor=#d79b00;" vertex="1" parent="1">
          <mxGeometry x="-219" y="1630" width="184" height="60" as="geometry" />
        </mxCell>
        <mxCell id="2JJx2ER6VihFAEzLnYSj-14" value="user_excel_interface" style="shape=process;whiteSpace=wrap;html=1;backgroundOutline=1;" vertex="1" parent="1">
          <mxGeometry x="-220" y="1720" width="184" height="60" as="geometry" />
        </mxCell>
        <mxCell id="2JJx2ER6VihFAEzLnYSj-18" style="edgeStyle=orthogonalEdgeStyle;rounded=0;orthogonalLoop=1;jettySize=auto;html=1;entryX=0;entryY=0.75;entryDx=0;entryDy=0;" edge="1" parent="1" source="2JJx2ER6VihFAEzLnYSj-17" target="2JJx2ER6VihFAEzLnYSj-10">
          <mxGeometry relative="1" as="geometry" />
        </mxCell>
        <mxCell id="2JJx2ER6VihFAEzLnYSj-17" value="video_files" style="shape=process;whiteSpace=wrap;html=1;backgroundOutline=1;fillColor=#ffcd28;gradientColor=#ffa500;strokeColor=#d79b00;" vertex="1" parent="1">
          <mxGeometry x="-663.5" y="1720" width="184" height="60" as="geometry" />
        </mxCell>
        <mxCell id="2JJx2ER6VihFAEzLnYSj-19" value="user_excel_interface.xlsm" style="shape=table;startSize=30;container=1;collapsible=0;childLayout=tableLayout;strokeColor=default;fontSize=16;" vertex="1" parent="1">
          <mxGeometry x="-220" y="1800" width="183" height="60" as="geometry" />
        </mxCell>
        <mxCell id="2JJx2ER6VihFAEzLnYSj-20" value="" style="shape=tableRow;horizontal=0;startSize=0;swimlaneHead=0;swimlaneBody=0;strokeColor=inherit;top=0;left=0;bottom=0;right=0;collapsible=0;dropTarget=0;fillColor=none;points=[[0,0.5],[1,0.5]];portConstraint=eastwest;fontSize=16;" vertex="1" parent="2JJx2ER6VihFAEzLnYSj-19">
          <mxGeometry y="30" width="183" height="10" as="geometry" />
        </mxCell>
        <mxCell id="2JJx2ER6VihFAEzLnYSj-21" value="" style="shape=partialRectangle;html=1;whiteSpace=wrap;connectable=0;strokeColor=inherit;overflow=hidden;fillColor=none;top=0;left=0;bottom=0;right=0;pointerEvents=1;fontSize=16;" vertex="1" parent="2JJx2ER6VihFAEzLnYSj-20">
          <mxGeometry width="61" height="10" as="geometry">
            <mxRectangle width="61" height="10" as="alternateBounds" />
          </mxGeometry>
        </mxCell>
        <mxCell id="2JJx2ER6VihFAEzLnYSj-22" value="" style="shape=partialRectangle;html=1;whiteSpace=wrap;connectable=0;strokeColor=inherit;overflow=hidden;fillColor=none;top=0;left=0;bottom=0;right=0;pointerEvents=1;fontSize=16;" vertex="1" parent="2JJx2ER6VihFAEzLnYSj-20">
          <mxGeometry x="61" width="61" height="10" as="geometry">
            <mxRectangle width="61" height="10" as="alternateBounds" />
          </mxGeometry>
        </mxCell>
        <mxCell id="2JJx2ER6VihFAEzLnYSj-23" value="" style="shape=partialRectangle;html=1;whiteSpace=wrap;connectable=0;strokeColor=inherit;overflow=hidden;fillColor=none;top=0;left=0;bottom=0;right=0;pointerEvents=1;fontSize=16;" vertex="1" parent="2JJx2ER6VihFAEzLnYSj-20">
          <mxGeometry x="122" width="61" height="10" as="geometry">
            <mxRectangle width="61" height="10" as="alternateBounds" />
          </mxGeometry>
        </mxCell>
        <mxCell id="2JJx2ER6VihFAEzLnYSj-24" value="" style="shape=tableRow;horizontal=0;startSize=0;swimlaneHead=0;swimlaneBody=0;strokeColor=inherit;top=0;left=0;bottom=0;right=0;collapsible=0;dropTarget=0;fillColor=none;points=[[0,0.5],[1,0.5]];portConstraint=eastwest;fontSize=16;" vertex="1" parent="2JJx2ER6VihFAEzLnYSj-19">
          <mxGeometry y="40" width="183" height="10" as="geometry" />
        </mxCell>
        <mxCell id="2JJx2ER6VihFAEzLnYSj-25" value="" style="shape=partialRectangle;html=1;whiteSpace=wrap;connectable=0;strokeColor=inherit;overflow=hidden;fillColor=none;top=0;left=0;bottom=0;right=0;pointerEvents=1;fontSize=16;" vertex="1" parent="2JJx2ER6VihFAEzLnYSj-24">
          <mxGeometry width="61" height="10" as="geometry">
            <mxRectangle width="61" height="10" as="alternateBounds" />
          </mxGeometry>
        </mxCell>
        <mxCell id="2JJx2ER6VihFAEzLnYSj-26" value="" style="shape=partialRectangle;html=1;whiteSpace=wrap;connectable=0;strokeColor=inherit;overflow=hidden;fillColor=none;top=0;left=0;bottom=0;right=0;pointerEvents=1;fontSize=16;" vertex="1" parent="2JJx2ER6VihFAEzLnYSj-24">
          <mxGeometry x="61" width="61" height="10" as="geometry">
            <mxRectangle width="61" height="10" as="alternateBounds" />
          </mxGeometry>
        </mxCell>
        <mxCell id="2JJx2ER6VihFAEzLnYSj-27" value="" style="shape=partialRectangle;html=1;whiteSpace=wrap;connectable=0;strokeColor=inherit;overflow=hidden;fillColor=none;top=0;left=0;bottom=0;right=0;pointerEvents=1;fontSize=16;" vertex="1" parent="2JJx2ER6VihFAEzLnYSj-24">
          <mxGeometry x="122" width="61" height="10" as="geometry">
            <mxRectangle width="61" height="10" as="alternateBounds" />
          </mxGeometry>
        </mxCell>
        <mxCell id="2JJx2ER6VihFAEzLnYSj-28" value="" style="shape=tableRow;horizontal=0;startSize=0;swimlaneHead=0;swimlaneBody=0;strokeColor=inherit;top=0;left=0;bottom=0;right=0;collapsible=0;dropTarget=0;fillColor=none;points=[[0,0.5],[1,0.5]];portConstraint=eastwest;fontSize=16;" vertex="1" parent="2JJx2ER6VihFAEzLnYSj-19">
          <mxGeometry y="50" width="183" height="10" as="geometry" />
        </mxCell>
        <mxCell id="2JJx2ER6VihFAEzLnYSj-29" value="" style="shape=partialRectangle;html=1;whiteSpace=wrap;connectable=0;strokeColor=inherit;overflow=hidden;fillColor=none;top=0;left=0;bottom=0;right=0;pointerEvents=1;fontSize=16;" vertex="1" parent="2JJx2ER6VihFAEzLnYSj-28">
          <mxGeometry width="61" height="10" as="geometry">
            <mxRectangle width="61" height="10" as="alternateBounds" />
          </mxGeometry>
        </mxCell>
        <mxCell id="2JJx2ER6VihFAEzLnYSj-30" value="" style="shape=partialRectangle;html=1;whiteSpace=wrap;connectable=0;strokeColor=inherit;overflow=hidden;fillColor=none;top=0;left=0;bottom=0;right=0;pointerEvents=1;fontSize=16;" vertex="1" parent="2JJx2ER6VihFAEzLnYSj-28">
          <mxGeometry x="61" width="61" height="10" as="geometry">
            <mxRectangle width="61" height="10" as="alternateBounds" />
          </mxGeometry>
        </mxCell>
        <mxCell id="2JJx2ER6VihFAEzLnYSj-31" value="" style="shape=partialRectangle;html=1;whiteSpace=wrap;connectable=0;strokeColor=inherit;overflow=hidden;fillColor=none;top=0;left=0;bottom=0;right=0;pointerEvents=1;fontSize=16;" vertex="1" parent="2JJx2ER6VihFAEzLnYSj-28">
          <mxGeometry x="122" width="61" height="10" as="geometry">
            <mxRectangle width="61" height="10" as="alternateBounds" />
          </mxGeometry>
        </mxCell>
        <mxCell id="2JJx2ER6VihFAEzLnYSj-34" style="edgeStyle=orthogonalEdgeStyle;rounded=0;orthogonalLoop=1;jettySize=auto;html=1;entryX=0;entryY=0.5;entryDx=0;entryDy=0;" edge="1" parent="1" source="2JJx2ER6VihFAEzLnYSj-32" target="2JJx2ER6VihFAEzLnYSj-20">
          <mxGeometry relative="1" as="geometry" />
        </mxCell>
        <mxCell id="2JJx2ER6VihFAEzLnYSj-32" value="Update spreadsheet" style="whiteSpace=wrap;html=1;" vertex="1" parent="1">
          <mxGeometry x="-440" y="1805" width="130" height="60" as="geometry" />
        </mxCell>
        <mxCell id="2JJx2ER6VihFAEzLnYSj-36" value="" style="edgeStyle=orthogonalEdgeStyle;rounded=0;orthogonalLoop=1;jettySize=auto;html=1;" edge="1" parent="1" source="2JJx2ER6VihFAEzLnYSj-35" target="2JJx2ER6VihFAEzLnYSj-32">
          <mxGeometry relative="1" as="geometry" />
        </mxCell>
        <mxCell id="2JJx2ER6VihFAEzLnYSj-35" value="user_excel_interface" style="shape=process;whiteSpace=wrap;html=1;backgroundOutline=1;" vertex="1" parent="1">
          <mxGeometry x="-663.5" y="1805" width="184" height="60" as="geometry" />
        </mxCell>
      </root>
    </mxGraphModel>
  </diagram>
  <diagram id="6wWbnFg0kT5GdMxmZpJ2" name="Late Night">
    <mxGraphModel dx="2058" dy="1198" grid="1" gridSize="10" guides="1" tooltips="1" connect="1" arrows="1" fold="1" page="1" pageScale="1" pageWidth="850" pageHeight="1100" math="0" shadow="0">
      <root>
        <mxCell id="0" />
        <mxCell id="1" parent="0" />
        <mxCell id="nqFNHBl5bVYqdIzW3MrY-1" value="" style="edgeStyle=orthogonalEdgeStyle;rounded=0;orthogonalLoop=1;jettySize=auto;html=1;" parent="1" source="nqFNHBl5bVYqdIzW3MrY-4" target="nqFNHBl5bVYqdIzW3MrY-7" edge="1">
          <mxGeometry relative="1" as="geometry" />
        </mxCell>
        <mxCell id="nqFNHBl5bVYqdIzW3MrY-2" value="Yes" style="edgeStyle=orthogonalEdgeStyle;rounded=0;orthogonalLoop=1;jettySize=auto;html=1;" parent="1" source="nqFNHBl5bVYqdIzW3MrY-4" target="nqFNHBl5bVYqdIzW3MrY-7" edge="1">
          <mxGeometry relative="1" as="geometry" />
        </mxCell>
        <mxCell id="nqFNHBl5bVYqdIzW3MrY-3" value="No" style="edgeStyle=orthogonalEdgeStyle;rounded=0;orthogonalLoop=1;jettySize=auto;html=1;" parent="1" source="nqFNHBl5bVYqdIzW3MrY-4" target="nqFNHBl5bVYqdIzW3MrY-9" edge="1">
          <mxGeometry relative="1" as="geometry" />
        </mxCell>
        <mxCell id="nqFNHBl5bVYqdIzW3MrY-4" value="After Hours still running?" style="rhombus;whiteSpace=wrap;html=1;" parent="1" vertex="1">
          <mxGeometry x="283" y="18" width="120" height="100" as="geometry" />
        </mxCell>
        <mxCell id="nqFNHBl5bVYqdIzW3MrY-5" style="edgeStyle=orthogonalEdgeStyle;rounded=0;orthogonalLoop=1;jettySize=auto;html=1;exitX=0.5;exitY=1;exitDx=0;exitDy=0;entryX=0.75;entryY=0;entryDx=0;entryDy=0;" parent="1" source="nqFNHBl5bVYqdIzW3MrY-7" target="nqFNHBl5bVYqdIzW3MrY-9" edge="1">
          <mxGeometry relative="1" as="geometry">
            <mxPoint x="543" y="68" as="sourcePoint" />
            <mxPoint x="368" y="208" as="targetPoint" />
            <Array as="points">
              <mxPoint x="543" y="148" />
              <mxPoint x="373" y="148" />
            </Array>
          </mxGeometry>
        </mxCell>
        <mxCell id="nqFNHBl5bVYqdIzW3MrY-6" value="No" style="edgeLabel;html=1;align=center;verticalAlign=middle;resizable=0;points=[];" parent="nqFNHBl5bVYqdIzW3MrY-5" vertex="1" connectable="0">
          <mxGeometry x="-0.0207" y="2" relative="1" as="geometry">
            <mxPoint as="offset" />
          </mxGeometry>
        </mxCell>
        <mxCell id="nqFNHBl5bVYqdIzW3MrY-7" value="Should I wait?" style="rhombus;whiteSpace=wrap;html=1;" parent="1" vertex="1">
          <mxGeometry x="483" y="18" width="120" height="100" as="geometry" />
        </mxCell>
        <mxCell id="nqFNHBl5bVYqdIzW3MrY-8" value="" style="edgeStyle=orthogonalEdgeStyle;rounded=0;orthogonalLoop=1;jettySize=auto;html=1;entryX=0;entryY=0.5;entryDx=0;entryDy=0;" parent="1" source="nqFNHBl5bVYqdIzW3MrY-9" target="yqhTlO7f-y-GCJJLXpxh-1" edge="1">
          <mxGeometry relative="1" as="geometry">
            <mxPoint x="504" y="214" as="targetPoint" />
          </mxGeometry>
        </mxCell>
        <mxCell id="Vh78hTkUaZzusMnGMHnd-2" style="edgeStyle=orthogonalEdgeStyle;rounded=0;orthogonalLoop=1;jettySize=auto;html=1;" parent="1" source="nqFNHBl5bVYqdIzW3MrY-9" target="Vh78hTkUaZzusMnGMHnd-1" edge="1">
          <mxGeometry relative="1" as="geometry" />
        </mxCell>
        <mxCell id="nqFNHBl5bVYqdIzW3MrY-9" value="Backup Database" style="whiteSpace=wrap;html=1;" parent="1" vertex="1">
          <mxGeometry x="283" y="184" width="120" height="60" as="geometry" />
        </mxCell>
        <mxCell id="yqhTlO7f-y-GCJJLXpxh-1" value="C:\filmcab backups\dump-filmcab-yyyymmddhhmmss" style="shape=document;whiteSpace=wrap;html=1;boundedLbl=1;" parent="1" vertex="1">
          <mxGeometry x="470" y="174" width="270" height="80" as="geometry" />
        </mxCell>
        <mxCell id="Vh78hTkUaZzusMnGMHnd-1" value="Vacuum Database and indexes" style="whiteSpace=wrap;html=1;" parent="1" vertex="1">
          <mxGeometry x="283" y="300" width="120" height="60" as="geometry" />
        </mxCell>
        <mxCell id="rNqSWV0B-QQWHx4m1ROR-1" value="Dump DDL and push to github" style="whiteSpace=wrap;html=1;" parent="1" vertex="1">
          <mxGeometry x="283" y="410" width="120" height="60" as="geometry" />
        </mxCell>
        <mxCell id="rNqSWV0B-QQWHx4m1ROR-3" style="edgeStyle=orthogonalEdgeStyle;rounded=0;orthogonalLoop=1;jettySize=auto;html=1;" parent="1" source="rNqSWV0B-QQWHx4m1ROR-2" target="nqFNHBl5bVYqdIzW3MrY-9" edge="1">
          <mxGeometry relative="1" as="geometry" />
        </mxCell>
        <mxCell id="rNqSWV0B-QQWHx4m1ROR-2" value="filmcab" style="strokeWidth=2;html=1;shape=mxgraph.flowchart.database;whiteSpace=wrap;" parent="1" vertex="1">
          <mxGeometry x="130" y="184" width="60" height="60" as="geometry" />
        </mxCell>
        <mxCell id="rNqSWV0B-QQWHx4m1ROR-6" style="edgeStyle=orthogonalEdgeStyle;rounded=0;orthogonalLoop=1;jettySize=auto;html=1;exitX=1;exitY=0.5;exitDx=0;exitDy=0;exitPerimeter=0;" parent="1" source="rNqSWV0B-QQWHx4m1ROR-4" edge="1">
          <mxGeometry relative="1" as="geometry">
            <mxPoint x="280" y="330" as="targetPoint" />
          </mxGeometry>
        </mxCell>
        <mxCell id="rNqSWV0B-QQWHx4m1ROR-4" value="filmcab" style="strokeWidth=2;html=1;shape=mxgraph.flowchart.database;whiteSpace=wrap;" parent="1" vertex="1">
          <mxGeometry x="130" y="300" width="60" height="60" as="geometry" />
        </mxCell>
        <mxCell id="rNqSWV0B-QQWHx4m1ROR-7" style="edgeStyle=orthogonalEdgeStyle;rounded=0;orthogonalLoop=1;jettySize=auto;html=1;exitX=1;exitY=0.5;exitDx=0;exitDy=0;exitPerimeter=0;entryX=0;entryY=0.5;entryDx=0;entryDy=0;" parent="1" source="rNqSWV0B-QQWHx4m1ROR-5" target="rNqSWV0B-QQWHx4m1ROR-1" edge="1">
          <mxGeometry relative="1" as="geometry" />
        </mxCell>
        <mxCell id="rNqSWV0B-QQWHx4m1ROR-5" value="filmcab" style="strokeWidth=2;html=1;shape=mxgraph.flowchart.database;whiteSpace=wrap;" parent="1" vertex="1">
          <mxGeometry x="130" y="410" width="60" height="60" as="geometry" />
        </mxCell>
        <mxCell id="LxZcGXFD32IdcqTOmqqZ-1" value="" style="verticalLabelPosition=bottom;verticalAlign=top;html=1;shape=mxgraph.basic.tick;fillColor=#008a00;fontColor=#ffffff;strokeColor=#005700;" vertex="1" parent="1">
          <mxGeometry x="527" y="570" width="32" height="30" as="geometry" />
        </mxCell>
      </root>
    </mxGraphModel>
  </diagram>
  <diagram id="uVgSnbR67_1dszx0mG5i" name="One-Time">
    <mxGraphModel dx="2024" dy="1198" grid="1" gridSize="10" guides="1" tooltips="1" connect="1" arrows="1" fold="1" page="1" pageScale="1" pageWidth="850" pageHeight="1100" math="0" shadow="0">
      <root>
        <mxCell id="0" />
        <mxCell id="1" parent="0" />
        <mxCell id="MiRJB4G7FG_xh_BpLnwA-1" value="UPSERT" style="edgeStyle=orthogonalEdgeStyle;rounded=0;orthogonalLoop=1;jettySize=auto;html=1;entryX=0;entryY=0.5;entryDx=0;entryDy=0;" parent="1" source="MiRJB4G7FG_xh_BpLnwA-2" target="MiRJB4G7FG_xh_BpLnwA-5" edge="1">
          <mxGeometry relative="1" as="geometry" />
        </mxCell>
        <mxCell id="MiRJB4G7FG_xh_BpLnwA-2" value="Chk IMDB dump for matches on tt id" style="whiteSpace=wrap;html=1;" parent="1" vertex="1">
          <mxGeometry x="365" y="62" width="120" height="53" as="geometry" />
        </mxCell>
        <mxCell id="MiRJB4G7FG_xh_BpLnwA-3" style="edgeStyle=orthogonalEdgeStyle;rounded=0;orthogonalLoop=1;jettySize=auto;html=1;entryX=0;entryY=0.5;entryDx=0;entryDy=0;" parent="1" source="MiRJB4G7FG_xh_BpLnwA-4" target="MiRJB4G7FG_xh_BpLnwA-2" edge="1">
          <mxGeometry relative="1" as="geometry" />
        </mxCell>
        <mxCell id="MiRJB4G7FG_xh_BpLnwA-4" value="imdb_video" style="shape=process;whiteSpace=wrap;html=1;backgroundOutline=1;" parent="1" vertex="1">
          <mxGeometry x="119" y="62" width="184" height="53" as="geometry" />
        </mxCell>
        <mxCell id="MiRJB4G7FG_xh_BpLnwA-5" value="video_data" style="shape=process;whiteSpace=wrap;html=1;backgroundOutline=1;" parent="1" vertex="1">
          <mxGeometry x="586" y="62" width="184" height="53" as="geometry" />
        </mxCell>
        <mxCell id="MiRJB4G7FG_xh_BpLnwA-6" value="" style="verticalLabelPosition=bottom;verticalAlign=top;html=1;shape=mxgraph.basic.partConcEllipse;startAngle=0.25;endAngle=0.1;arcWidth=0.5;fillColor=#e3c800;fontColor=#000000;strokeColor=#B09500;" parent="1" vertex="1">
          <mxGeometry x="303" y="30" width="30" height="25" as="geometry" />
        </mxCell>
        <mxCell id="3i_FsiP5r6XPUDYSlXD5-1" value="UPSERT" style="edgeStyle=orthogonalEdgeStyle;rounded=0;orthogonalLoop=1;jettySize=auto;html=1;entryX=0;entryY=0.5;entryDx=0;entryDy=0;" parent="1" source="3i_FsiP5r6XPUDYSlXD5-2" target="3i_FsiP5r6XPUDYSlXD5-5" edge="1">
          <mxGeometry relative="1" as="geometry" />
        </mxCell>
        <mxCell id="3i_FsiP5r6XPUDYSlXD5-2" value="Chk IMDB dump for matches on title + year" style="whiteSpace=wrap;html=1;" parent="1" vertex="1">
          <mxGeometry x="365" y="160" width="120" height="53" as="geometry" />
        </mxCell>
        <mxCell id="3i_FsiP5r6XPUDYSlXD5-3" style="edgeStyle=orthogonalEdgeStyle;rounded=0;orthogonalLoop=1;jettySize=auto;html=1;entryX=0;entryY=0.5;entryDx=0;entryDy=0;" parent="1" source="3i_FsiP5r6XPUDYSlXD5-4" target="3i_FsiP5r6XPUDYSlXD5-2" edge="1">
          <mxGeometry relative="1" as="geometry" />
        </mxCell>
        <mxCell id="3i_FsiP5r6XPUDYSlXD5-4" value="imdb_video" style="shape=process;whiteSpace=wrap;html=1;backgroundOutline=1;" parent="1" vertex="1">
          <mxGeometry x="119" y="160" width="184" height="53" as="geometry" />
        </mxCell>
        <mxCell id="3i_FsiP5r6XPUDYSlXD5-5" value="video_data" style="shape=process;whiteSpace=wrap;html=1;backgroundOutline=1;" parent="1" vertex="1">
          <mxGeometry x="586" y="160" width="184" height="53" as="geometry" />
        </mxCell>
      </root>
    </mxGraphModel>
  </diagram>
</mxfile>
